<svg id="Layer_1" data-name="Layer 1" xmlns="http://www.w3.org/2000/svg" viewBox="0 0 367 418.7"><title>chat</title><g id="Page-1"><g id="_01" data-name="01"><g id="Group-217"><path id="Fill-1" d="M150,118A105,105,0,1,0,255,13,105,105,0,0,0,150,118" transform="translate(0 -0.3)" style="fill:#dde8f5"/><path id="Fill-3" d="M264.6,17a23.46,23.46,0,0,1,10.2-.7,12.66,12.66,0,0,1,8.3,5.4c1.9,3.3,1.8,7.3,1.5,11l-1.8,28.2c-.2,2.6-.3,5.3.7,7.7s3.7,4.4,6.4,3.9a25.44,25.44,0,0,0,3.8-1.6c1.3-.5,3-.5,3.8.6a3,3,0,0,1,.4,2.3,11.18,11.18,0,0,1-5.9,8.4c1.9-.9,4.2.9,4.3,2.9s-1.7,3.7-3.6,4.5a18.2,18.2,0,0,1-6.2.7,3.15,3.15,0,0,1,2.9,3.4,4.71,4.71,0,0,1-3.1,3.6,11,11,0,0,1-5.1.5A19.64,19.64,0,0,1,271,94.2c-5-3.8-7.1-10.3-7.1-16.4s1.5-12.1,2.4-18.2c2.1-14,.4-28.3-1.3-42.4a5.64,5.64,0,0,0,1.2-.4" transform="translate(0 -0.3)" style="fill:#ff6f47"/><path id="Fill-5" d="M283,228.8c-4.1,3.8-5.6,9.8-1.7,14.4a11.66,11.66,0,0,0,15.3,1.8c11-8.3-.5-23.6-12.4-20.5a1.94,1.94,0,0,0,.5,3.8c3.5.2,7.2.3,10,2.7a6.87,6.87,0,0,1,.6,9.8c-6.5,7.8-17.8-3.7-10.9-10.6.8-1-.5-2.3-1.4-1.4" transform="translate(0 -0.3)" style="fill:#7cabff"/><path id="Fill-7" d="M164.3,188c-1.4-1.6-2.9-2.8-3.6-4.9-1.4-4.2,1.3-6.3,4.4-7.9s5.7-3.5,6.6-7.3c1.5-6-3.3-13.4-9.3-11.6-2,.6-1.4,3.3,0,4.1,1.9,1.2,4.4,1.8,4.7,4.6.4,3.7-3,4.8-5.4,6.1a10.82,10.82,0,0,0-5.3,6.7c-1.4,5.3,1.5,12.4,7.2,12.1a1.17,1.17,0,0,0,.7-1.9" transform="translate(0 -0.3)" style="fill:#476af5"/><path id="Fill-9" d="M146,252.1c.5,3.5,4.2,10.8,8,11.8,2,.5,3.6-.8,5.1-1.9,2.9-2,5.7-4,8.6-6a2.44,2.44,0,0,0,.9-3.3c-2.5-3.8-5-7.7-7.6-11.5a2.56,2.56,0,0,0-3.4-.9c-3.1,2.2-6.6,4.2-9.4,6.8-2,1.8.5,4.7,2.8,3.5,3.2-1.7,6.1-4.1,9.1-6.2-1.1-.3-2.2-.6-3.4-.9,2.5,3.8,5,7.7,7.6,11.5l.9-3.3-5.1,3.6c-1,.7-4.2,3.7-5.3,3.6s-3-3.5-3.6-4.2a17.58,17.58,0,0,0-3.9-3.8c-.7-.4-1.4.4-1.3,1.2" transform="translate(0 -0.3)" style="fill:#fb5d6d"/><path id="Fill-11" d="M314,96.1c.5,3.5,4.2,10.8,8,11.8,2,.5,3.6-.8,5.1-1.9,2.9-2,5.7-4,8.6-6a2.44,2.44,0,0,0,.9-3.3c-2.5-3.8-5-7.7-7.6-11.5a2.56,2.56,0,0,0-3.4-.9c-3.1,2.2-6.6,4.2-9.4,6.8-2,1.8.5,4.7,2.8,3.5,3.2-1.7,6.1-4.1,9.1-6.2-1.1-.3-2.2-.6-3.4-.9,2.5,3.8,5,7.7,7.6,11.5l.9-3.3-5.1,3.6c-1,.7-4.2,3.7-5.3,3.6s-3-3.5-3.6-4.2a17.58,17.58,0,0,0-3.9-3.8c-.7-.4-1.4.4-1.3,1.2" transform="translate(0 -0.3)" style="fill:#fb5d6d"/><path id="Fill-13" d="M328.9,157.1c-6.3,3-12.4,6.2-18.6,9.5a2.27,2.27,0,0,0-.6,3.7c4.5,4.9,9,9.7,13.8,14.2a1.84,1.84,0,0,0,2.9-.7c3-6.8,7.6-16.2,6.3-23.9-.3-2-3.2-2.9-4-.7-1.2,3.4-1.2,7.3-2,10.9a63,63,0,0,1-3.8,12.1l3.3-.4c-4.4-5.2-9.2-10-14-14.9,0,1.1-.1,2.3-.1,3.4,6-3.5,12-7.1,17.9-10.9,1.4-.7.2-2.9-1.1-2.3" transform="translate(0 -0.3)" style="fill:#ff6f47"/><path id="Fill-15" d="M210.2,246.6a126.53,126.53,0,0,0,12.5-17.5c1.1-1.9-1.6-4.2-3-2.4A123.17,123.17,0,0,0,208.1,245c-.6,1.3,1.1,2.7,2.1,1.6" transform="translate(0 -0.3)" style="fill:#ff6f47"/><path id="Fill-17" d="M365.9,62.4l-.3-.3c-1.5-1.3-4-1.6-5.4,0a3.9,3.9,0,0,0,0,5.4l.3.3a3.92,3.92,0,0,0,5.5,0c1.2-1.4,1.5-4-.1-5.4" transform="translate(0 -0.3)" style="fill:#241352"/><path id="Fill-19" d="M183.9,212.4l-.3-.3c-1.5-1.3-4-1.6-5.4,0a3.9,3.9,0,0,0,0,5.4l.3.3a3.92,3.92,0,0,0,5.5,0c1.2-1.4,1.5-4-.1-5.4" transform="translate(0 -0.3)" style="fill:#241352"/><path id="Fill-21" d="M239,85.7l-70.5,26.6,6.7-28.7L156.9,79s-19.7,56-6,57.5c24,2.6,60.3-6.9,60.3-6.9Z" transform="translate(0 -0.3)" style="fill:#ffa7a7"/><path id="Fill-23" d="M214,146.9l.2,54.7c17.8,22.1,79.7-6.5,79.7-6.5l.7-22.4,1.4-53.3c-1.4-21.2-20.9-31.6-20.9-31.6-8-4.1-20.3-6.4-31.4-5.8-11.5.6-14.4,6.2-19.1,16.8-3.8,8.7-10.6,16.8-10.6,48.1" transform="translate(0 -0.3)" style="fill:#241352"/><path id="Fill-25" d="M271.7,31.3l-.8,11s9.3,1.3,6.7,9.8-9,4.8-9,4.8S267,78.7,244.7,71.8c-17.7-5.5-16.6-28.5-14.4-48.1a13,13,0,0,1,15.5-11.3L259.2,15a15.32,15.32,0,0,1,12.5,16.3" transform="translate(0 -0.3)" style="fill:#ffa7a7"/><path id="Fill-27" d="M272,51l-6.1,32.4a13.06,13.06,0,0,1-25.7-4.7l3.3-18.6Z" transform="translate(0 -0.3)" style="fill:#ffa7a7"/><path id="Fill-29" d="M246,52.1a.79.79,0,0,1-.4.8c-.5.3-1.2-.4-1.4-1.5a21.75,21.75,0,0,1-.2-3.7c0-1.5.1-2.9.1-4.4.3-6.3.7-11.3.9-11.3s.2,5.1,0,11.3c-.1,1.5-.1,2.9-.2,4.4a12.75,12.75,0,0,0,0,3.4c.1.9.5,1.3.8,1.3s.3-.4.4-.3" transform="translate(0 -0.3)" style="fill:#241352"/><path id="Fill-31" d="M240,69c.2-.3,4.5,2.7,10.9,2.8s10.9-2.7,11.1-2.4c.1.1-.9,1-2.8,1.9a20.2,20.2,0,0,1-8.3,1.7,19.31,19.31,0,0,1-8.2-2c-1.9-1-2.8-1.9-2.7-2" transform="translate(0 -0.3)" style="fill:#241352"/><path id="Fill-33" d="M244,56.7c.1-.1.6.3,1.5.7a5.41,5.41,0,0,0,3.6.2,5.35,5.35,0,0,0,2.8-2.2c.5-.8.7-1.4.9-1.4s.3.7-.1,1.8a5.29,5.29,0,0,1-3.2,3,5.57,5.57,0,0,1-4.4-.6c-.9-.7-1.2-1.4-1.1-1.5" transform="translate(0 -0.3)" style="fill:#241352"/><path id="Fill-35" d="M272,51.8c0-.2.4-.3.7-.6a1.61,1.61,0,0,0,.4-.7c.1-.3,0-.6-.2-.6s-.3,0-.3,0l-.7-.5c.6-1.5,1.1-2.5,1.3-2.4s-.1,1.3-.5,2.8l-.7-.5a1,1,0,0,1,1.3-.5,1.32,1.32,0,0,1,.7.9,4,4,0,0,1,0,1.1,1.74,1.74,0,0,1-.9,1.1c-.7.2-1.1,0-1.1-.1" transform="translate(0 -0.3)" style="fill:#241352"/><path id="Fill-37" d="M257,31.8c-.1-.3.9-.8,2.2-.5s1.9,1.3,1.7,1.4-1-.2-2-.4-1.8-.2-1.9-.5" transform="translate(0 -0.3)" style="fill:#241352"/><path id="Fill-39" d="M237,28.2c-.2-.2,1-.9,2.6-.8s2.6.9,2.4,1.2-1.2,0-2.5-.1a14.45,14.45,0,0,1-2.5-.3" transform="translate(0 -0.3)" style="fill:#241352"/><path id="Fill-41" d="M270.3,42.4c-6.1-6.1-7.9-16.3-9.5-24.9a20.88,20.88,0,0,1-19.9,2.7,31,31,0,0,1-7.1,6.4,3,3,0,0,1-2.5.7c-1-.3-1.5-1.5-1.7-2.6a18.41,18.41,0,0,1,.4-10.4,12.62,12.62,0,0,1,6.8-7.5c3.4-1.4,7.2-.8,10.8.2a56.71,56.71,0,0,1,15.2,6.5c4.7,2.8,9.1,6.5,11.1,11.7s2,15.2-2.8,17.8" transform="translate(0 -0.3)" style="fill:#ff6f47"/><path id="Fill-43" d="M235.4,86.2c6.2-2.4-41.4,14.6-41.4,14.6l4.8,31.2,18.1-5.7Z" transform="translate(0 -0.3)" style="fill:#241352"/><path id="Fill-45" d="M172.8,85s12.1-17.1,10-17.1-3.3,3.2-7.5,5.4c0,0,6.7-21.4,4.6-20.9s-7,14.2-7.4,14.2S176.8,51.2,175,51s-5.9,14.1-5.9,14.1,2.9-13.6,1.1-13.9-4.5,12.2-4.5,12.2,2.2-10.5.5-10.8c-1-.2-10.2,25.9-10.2,25.9.2.1,16.8,6.5,16.8,6.5" transform="translate(0 -0.3)" style="fill:#ffa7a7"/><path id="Fill-47" d="M267.5,145a7.69,7.69,0,0,1-.5-2.4c-.3-1.6-.6-3.9-1-6.7-.8-5.7-1.8-13.5-2.8-22.2a23.58,23.58,0,0,1,0-6.5,11.92,11.92,0,0,1,2.6-5.7,16.62,16.62,0,0,1,9.3-5.2,23,23,0,0,1,7.3-.2,14.4,14.4,0,0,1,2.6.5,12.85,12.85,0,0,1-2.6-.1,27.27,27.27,0,0,0-7,.6,15.42,15.42,0,0,0-8.6,5,10.36,10.36,0,0,0-2.3,5.1,25.69,25.69,0,0,0,0,6.2c1,8.6,1.8,16.5,2.4,22.2.3,2.8.5,5.1.6,6.7a9.17,9.17,0,0,1,0,2.7" transform="translate(0 -0.3)" style="fill:#241352"/><path id="Fill-49" d="M265,142.1c0-.3,8.4.2,18.6,1.3s18.5,2.2,18.4,2.5-8.3-.2-18.6-1.3-18.4-2.2-18.4-2.5" transform="translate(0 -0.3)" style="fill:#241352"/><g id="Group-53"><polygon id="Fill-51" points="210.4 2.7 210.4 39.7 186 39.7 185.2 53.8 170.8 38.9 117 38.9 121.8 0 210.4 2.7" style="fill:#476af5"/></g><path id="Fill-54" d="M203.8,13.8c-23.8-.4-47.7-.5-71.5-.1a.3.3,0,0,0,0,.6c23.8.4,47.7.3,71.5-.1a.2.2,0,1,0,0-.4" transform="translate(0 -0.3)" style="fill:#e6e2eb"/><path id="Fill-56" d="M203.8,21.8c-23.8-.4-47.7-.5-71.5-.1a.3.3,0,0,0,0,.6c23.8.4,47.7.3,71.5-.1a.2.2,0,1,0,0-.4" transform="translate(0 -0.3)" style="fill:#e6e2eb"/><path id="Fill-58" d="M200.8,29.8c-14.4-.4-29.1-.5-43.5-.1a.3.3,0,0,0,0,.6c14.4.4,29.1.3,43.5-.1a.2.2,0,1,0,0-.4" transform="translate(0 -0.3)" style="fill:#e6e2eb"/><path id="Fill-60" d="M237.7,37.8a1,1,0,0,1-1-.5c-.4-.4-.7-.7-.6-1s.7-.3,1.3.2.6,1.2.3,1.3" transform="translate(0 -0.3)" style="fill:#241352"/><path id="Fill-62" d="M256.8,39c-.3.1-.7-.3-1.2-.8s-.8-1-.6-1.1.9.1,1.4.6.7,1.2.4,1.3" transform="translate(0 -0.3)" style="fill:#241352"/><path id="Fill-64" d="M252.8,55.8c.5,1.9,0,3.7-1,4.1s-2.2-.8-2.7-2.7,0-3.7,1-4.1,2.3.8,2.7,2.7" transform="translate(0 -0.3)" style="fill:#241352;fill-opacity:0.20000000298023224"/><path id="Fill-66" d="M264,44.5c0,1.9-2.2,3.5-5,3.5s-5-1.5-5-3.5,2.2-3.5,5-3.5,5,1.5,5,3.5" transform="translate(0 -0.3)" style="fill:#241352;fill-opacity:0.15000000596046448"/><path id="Fill-68" d="M242,45.5c0,1.9-2.2,3.5-5,3.5s-5-1.5-5-3.5,2.2-3.5,5-3.5,5,1.5,5,3.5" transform="translate(0 -0.3)" style="fill:#241352;fill-opacity:0.15000000596046448"/><path id="Fill-70" d="M272.3,28a3.35,3.35,0,0,0-.1-1.7c-.3-1-1.2-2.4-1.9-4-1.5-3.2-2.5-6-2.2-6.2s1.7,2.3,3.3,5.6a22.9,22.9,0,0,1,1.7,4.4,2.49,2.49,0,0,1-.2,1.6,1.2,1.2,0,0,1-.6.3" transform="translate(0 -0.3)" style="fill:#353ca5"/><polygon id="Fill-72" points="219.2 133.5 215 188.1 273 195.7 269.1 132.7 219.2 133.5" style="fill:#7cabff"/><polyline id="Fill-74" points="222 96.1 222 138.7 229 136.3 229 87.7 222 89.7" style="fill:#7cabff"/><path id="Fill-76" d="M275.7,90s-26,3.3-18.3,45.3l6.5.7S256.6,96.5,281,93.7Z" transform="translate(0 -0.3)" style="fill:#7cabff"/><path id="Fill-78" d="M268.7,138s8.8,52.1-3.6,50.9c-40.9-4.2-65.3-4.8-65.3-4.8L193,198.2c-.2,2.4,77.5,24.7,89.9,17.3,8.8-5.2,22.8-19.2,16.5-61.1l-1.5-14Z" transform="translate(0 -0.3)" style="fill:#ffa7a7"/><path id="Fill-80" d="M290.5,103.9s9.4,9.2,11.5,44.1l-36.5-4.1s-6.1-59.4,25-40" transform="translate(0 -0.3)" style="fill:#241352"/><path id="Fill-82" d="M204.4,184.6s-20.1-6.3-19.4-4.2,4.1,2.1,7.5,5.5c0,0-22.5.2-21.4,2.1s15.7,2.3,15.8,2.6-16,.7-15.7,2.4,15.3,1.3,15.3,1.3-13.9,1.5-13.6,3.3,13.1.5,13.1.5-10.7,1.2-10.4,2.9c.2,1,31.4,1.2,31.4,2,0,.4-2.6-18.4-2.6-18.4" transform="translate(0 -0.3)" style="fill:#ffa7a7"/><path id="Fill-84" d="M229.3,132c.2,0,.5.9.7,2.7a5.94,5.94,0,0,1-.5,3.1,3.56,3.56,0,0,1-3.2,2.2,4,4,0,0,1-3.3-2,6.37,6.37,0,0,1-.9-3c-.1-1.7.1-2.7.3-2.7s.3,1,.6,2.6a5.6,5.6,0,0,0,1,2.4,3.15,3.15,0,0,0,2.3,1.4,2.83,2.83,0,0,0,2.2-1.5,5.9,5.9,0,0,0,.7-2.5c0-1.6-.1-2.7.1-2.7" transform="translate(0 -0.3)" style="fill:#241352"/><path id="Fill-86" d="M226.5,134.4c.1.1,0,.3.1.5s.2.3.4.2.2-.3,0-.5-.3-.2-.5-.2c0-.1.2-.5.8-.4a1.16,1.16,0,0,1,.7.7,1.11,1.11,0,0,1-.4,1.1,1.05,1.05,0,0,1-1.2,0,.86.86,0,0,1-.3-.9c0-.5.4-.6.4-.5" transform="translate(0 -0.3)" style="fill:#241352"/><path id="Fill-88" d="M263.5,133c.1-.1.7.5.5,1.5a3.34,3.34,0,0,1-3.3,2.5,3.75,3.75,0,0,1-3.6-2.3c-.3-1,.2-1.6.3-1.5s.2.6.6,1.2a3.34,3.34,0,0,0,2.6,1.4,2.75,2.75,0,0,0,2.4-1.6c.4-.6.3-1.1.5-1.2" transform="translate(0 -0.3)" style="fill:#241352"/><path id="Fill-90" d="M261.1,129.7c-.1-.1.1-.7.7-.7.3,0,.6.2.9.7a3.05,3.05,0,0,1,0,2.3c-.2.7-.8,1.2-1.3.8a2.38,2.38,0,0,1-.5-1.7,1.18,1.18,0,0,1,.4-1c.2-.1.3,0,.3.1s-.2.5-.1.9.2.6.4.1a1.05,1.05,0,0,0-.3-1.2c-.1-.2-.4-.1-.5-.3" transform="translate(0 -0.3)" style="fill:#241352"/><path id="Fill-92" d="M258.8,157c-.3-.1-.3-1.2-.3-2.5s.1-2.4.4-2.5.7,1.1.6,2.5-.4,2.6-.7,2.5" transform="translate(0 -0.3)" style="fill:#241352"/><path id="Fill-94" d="M254,165.9c-.2-.3.2-1.2.7-2.2s1-1.9,1.2-1.7,0,1.3-.5,2.4-1.2,1.8-1.4,1.5" transform="translate(0 -0.3)" style="fill:#241352"/><path id="Fill-96" d="M246,170.6c-.1-.3,1-.6,2.3-1s2.5-.5,2.6-.3-.8.9-2.2,1.3a4.35,4.35,0,0,1-2.7,0" transform="translate(0 -0.3)" style="fill:#241352"/><path id="Fill-98" d="M235,169.4c.2-.3,1.3-.1,2.6.2s2.4.6,2.4.9-1.3.4-2.7.1-2.4-1-2.3-1.2" transform="translate(0 -0.3)" style="fill:#241352"/><path id="Fill-100" d="M228.1,163c.2-.2.7.6,1.2,1.7s.9,2,.7,2.2-.8-.3-1.4-1.4a4,4,0,0,1-.5-2.5" transform="translate(0 -0.3)" style="fill:#241352"/><path id="Fill-102" d="M227,153c.3,0,.4,1.1.5,2.5s.1,2.4-.2,2.5-.7-1-.8-2.4.2-2.6.5-2.6" transform="translate(0 -0.3)" style="fill:#241352"/><path id="Fill-104" d="M234,152.1c0,.3-1.1.5-2.5.4s-2.5-.3-2.5-.6,1.1-.5,2.5-.4,2.5.3,2.5.6" transform="translate(0 -0.3)" style="fill:#241352"/><path id="Fill-106" d="M244,152.1c0,.3-1.1.5-2.5.4s-2.5-.3-2.5-.6,1.1-.5,2.5-.4,2.5.3,2.5.6" transform="translate(0 -0.3)" style="fill:#241352"/><path id="Fill-108" d="M255,152.1c0,.3-1.1.5-2.5.4s-2.5-.3-2.5-.6,1.1-.5,2.5-.4,2.5.3,2.5.6" transform="translate(0 -0.3)" style="fill:#241352"/><path id="Fill-110" d="M259.3,263.1A150.33,150.33,0,0,0,262,242a1.72,1.72,0,0,0-3.4-.5,151.56,151.56,0,0,0-1.6,21.3,1.16,1.16,0,0,0,2.3.3" transform="translate(0 -0.3)" style="fill:#ff957e"/><path id="Fill-112" d="M293.9,285.4l-.3-.3c-1.5-1.3-4-1.6-5.4,0a3.9,3.9,0,0,0,0,5.4l.3.3a3.92,3.92,0,0,0,5.5,0c1.2-1.4,1.5-4-.1-5.4" transform="translate(0 -0.3)" style="fill:#241352"/><g id="Group-116"><path id="Fill-114" d="M214.2,314.3A104.6,104.6,0,1,1,109.6,209.6,104.65,104.65,0,0,1,214.2,314.3" transform="translate(0 -0.3)" style="fill:#dde8f5"/></g><path id="Fill-117" d="M125,278.7l70.5,26.6-6.7-28.7,18.3-4.7s19.7,56,6,57.5c-24,2.6-60.3-6.9-60.3-6.9Z" transform="translate(0 -0.3)" style="fill:#ffa7a7"/><path id="Fill-119" d="M149,341.9l-.2,54.7c-17.8,22.1-79.7-6.5-79.7-6.5l-.7-22.4L67,314.5c1.4-21.2,20.9-31.6,20.9-31.6,8-4.1,20.3-6.4,31.4-5.8,11.5.6,14.4,6.2,19.1,16.8,3.8,8.6,10.6,16.7,10.6,48" transform="translate(0 -0.3)" style="fill:#353ca5"/><path id="Fill-121" d="M94.3,331s-8.8,52.1,3.6,50.9c40.9-4.2,65.3-4.8,65.3-4.8l6.8,14.1c.2,2.4-77.5,24.7-89.9,17.3-8.8-5.2-22.8-19.2-16.5-61.1l1.5-14Z" transform="translate(0 -0.3)" style="fill:#ffa7a7"/><path id="Fill-123" d="M71.5,297.9S62.1,307.1,60,342l36.5-4.1s6.1-59.4-25-40" transform="translate(0 -0.3)" style="fill:#353ca5"/><path id="Fill-125" d="M89.3,225.3l.8,11s-9.3,1.3-6.7,9.8,9,4.8,9,4.8,1.6,21.8,23.9,14.9c17.7-5.5,16.6-28.5,14.4-48.1a13,13,0,0,0-15.5-11.3L101.8,209a15.32,15.32,0,0,0-12.5,16.3" transform="translate(0 -0.3)" style="fill:#ffa7a7"/><path id="Fill-127" d="M91,244l6.1,32.4a13.06,13.06,0,0,0,25.7-4.7l-3.3-18.6Z" transform="translate(0 -0.3)" style="fill:#ffa7a7"/><path id="Fill-129" d="M116,245.1c.1-.1.2.3.4.3s.7-.4.8-1.3a19.15,19.15,0,0,0,0-3.4c-.1-1.5-.1-2.9-.2-4.4-.3-6.2-.3-11.3,0-11.3s.6,5,.9,11.3c0,1.5.1,2.9.1,4.4a14.51,14.51,0,0,1-.2,3.7c-.2,1.1-.9,1.8-1.4,1.5a.79.79,0,0,1-.4-.8" transform="translate(0 -0.3)" style="fill:#241352"/><path id="Fill-131" d="M124,264c.1.1-.8,1-2.7,2a19.31,19.31,0,0,1-8.2,2,18.69,18.69,0,0,1-8.3-1.7c-1.9-.9-2.9-1.8-2.8-1.9.2-.3,4.7,2.5,11.1,2.4s10.7-3.1,10.9-2.8" transform="translate(0 -0.3)" style="fill:#241352"/><path id="Fill-133" d="M118,248.7c.1.1-.2.8-1.1,1.4a5.19,5.19,0,0,1-4.4.6,5.29,5.29,0,0,1-3.2-3c-.4-1.1-.2-1.8-.1-1.8s.3.6.8,1.4a5.35,5.35,0,0,0,2.8,2.2,6,6,0,0,0,3.6-.2c.9-.3,1.4-.7,1.6-.6" transform="translate(0 -0.3)" style="fill:#241352"/><path id="Fill-135" d="M89,246.8c0,.1-.4.4-1,.1a1.74,1.74,0,0,1-.9-1.1,2,2,0,0,1,0-1.1,1.11,1.11,0,0,1,.7-.9,1,1,0,0,1,1.3.5l-.7.5c-.5-1.5-.7-2.7-.5-2.8s.7.9,1.3,2.4l-.7.5s-.1-.1-.3,0-.2.3-.2.6a1.61,1.61,0,0,0,.4.7c.2.3.6.4.6.6" transform="translate(0 -0.3)" style="fill:#241352"/><path id="Fill-137" d="M107,224.8c-.1.3-1,.3-2,.5s-1.8.6-2,.4.4-1.1,1.7-1.4,2.4.2,2.3.5" transform="translate(0 -0.3)" style="fill:#241352"/><path id="Fill-139" d="M126,221.2c-.1.3-1.2.1-2.5.2s-2.3.4-2.5.1.8-1,2.4-1.2c1.6,0,2.7.6,2.6.9" transform="translate(0 -0.3)" style="fill:#241352"/><path id="Fill-141" d="M92.7,235.4c6.1-6.1,7.9-16.3,9.5-24.9a20.88,20.88,0,0,0,19.9,2.7,31,31,0,0,0,7.1,6.4,3,3,0,0,0,2.5.7c1-.3,1.5-1.5,1.7-2.6a18.41,18.41,0,0,0-.4-10.4,12.62,12.62,0,0,0-6.8-7.5c-3.4-1.4-7.2-.8-10.8.2a56.71,56.71,0,0,0-15.2,6.5c-4.7,2.8-9.1,6.5-11.1,11.7s-2,15.2,2.8,17.9" transform="translate(0 -0.3)" style="fill:#241352"/><path id="Fill-143" d="M127.6,279.2c-6.2-2.4,41.4,14.6,41.4,14.6L164.2,325l-18.1-5.7Z" transform="translate(0 -0.3)" style="fill:#353ca5"/><path id="Fill-145" d="M158.6,376.6s20.1-6.3,19.4-4.2-4.1,2.1-7.5,5.5c0,0,22.5.2,21.4,2.1s-15.7,2.3-15.8,2.6,16,.7,15.7,2.4-15.3,1.3-15.3,1.3,13.9,1.5,13.6,3.3-13.1.5-13.1.5,10.7,1.2,10.4,2.9c-.2,1-31.3,1.2-31.4,2,0,.4,2.6-18.4,2.6-18.4" transform="translate(0 -0.3)" style="fill:#ffa7a7"/><path id="Fill-147" d="M189.2,279s-12.1-17.1-10-17.1,3.3,3.2,7.5,5.4c0,0-6.7-21.4-4.6-20.9s7,14.2,7.4,14.2-4.3-15.4-2.5-15.6,5.9,14.1,5.9,14.1-2.9-13.6-1.1-13.9,4.5,12.2,4.5,12.2-2.2-10.5-.5-10.8c1-.2,10.2,25.9,10.2,25.9-.2.1-16.8,6.5-16.8,6.5" transform="translate(0 -0.3)" style="fill:#ffa7a7"/><path id="Fill-149" d="M78.4,325c.1,0,.6.7.6,2.2a3,3,0,0,1-1.3,2.4,2.84,2.84,0,0,1-1.9.4,2.94,2.94,0,0,1-1.6-1c-.8-.8-1.3-1.3-2.1-1.4a2.39,2.39,0,0,0-1.9.5c-.9.8-.9,1.7-1.1,1.7s-.6-1,.4-2.2a3.21,3.21,0,0,1,2.7-1,2.72,2.72,0,0,1,1.7.6,13.07,13.07,0,0,1,1.2,1.1c1.2,1.6,2.9,0,3-1.1.2-1.3.1-2.2.3-2.2" transform="translate(0 -0.3)" style="fill:#fcf2fc"/><path id="Fill-151" d="M89,316.1c-.1-.1.4-.9,1.7-1.7a3,3,0,0,1,2.8-.2,2.37,2.37,0,0,1,1.3,1.3,4.06,4.06,0,0,1,0,1.9c-.4,1.1-.6,1.8-.2,2.5a2.5,2.5,0,0,0,1.4,1.3c1.2.3,2-.2,2.1,0s-.6,1-2.2.8a3.31,3.31,0,0,1-2.3-1.6,3.23,3.23,0,0,1-.3-1.7c.1-.6.3-1.1.4-1.6.8-1.9-1.4-2.4-2.5-1.8-1.3.4-2.1,1-2.2.8" transform="translate(0 -0.3)" style="fill:#fcf2fc"/><path id="Fill-153" d="M89,293.1c-.1-.1.4-.9,1.7-1.7a3,3,0,0,1,2.8-.2,2.09,2.09,0,0,1,1.3,1.3,4.06,4.06,0,0,1,0,1.9c-.4,1.1-.6,1.8-.2,2.5a2.5,2.5,0,0,0,1.4,1.3c1.2.3,2-.2,2.1,0s-.6,1-2.2.8a3.31,3.31,0,0,1-2.3-1.6,3.23,3.23,0,0,1-.3-1.7c.1-.6.3-1.1.4-1.6.8-1.9-1.4-2.4-2.5-1.8-1.3.4-2.1,1-2.2.8" transform="translate(0 -0.3)" style="fill:#fcf2fc"/><path id="Fill-155" d="M110.5,323c-.1.1-.9-.3-1.9-1.4a2.86,2.86,0,0,1-.5-2.6,2.69,2.69,0,0,1,1.2-1.4,3.15,3.15,0,0,1,1.9-.1c1.2.3,1.9.4,2.6,0A2,2,0,0,0,115,316c.2-1.1-.4-1.9-.2-2s1.1.5,1.1,2.1a2.81,2.81,0,0,1-1.5,2.3,2.54,2.54,0,0,1-1.7.4c-.6,0-1.2-.2-1.7-.2-2-.6-2.4,1.6-1.7,2.5.7,1.1,1.4,1.8,1.2,1.9" transform="translate(0 -0.3)" style="fill:#fcf2fc"/><path id="Fill-157" d="M126,347c.1.1-.4.9-1.9,1.7a3,3,0,0,1-2.9,0,2.78,2.78,0,0,1-1.3-1.5,3.29,3.29,0,0,1,.2-2c.5-1.2.7-1.9.4-2.7a2.12,2.12,0,0,0-1.4-1.5,4,4,0,0,0-2.2-.1c-.1-.1.7-1.1,2.4-.7a3.31,3.31,0,0,1,2.2,2,3.85,3.85,0,0,1,.2,1.9c-.1.6-.4,1.2-.5,1.7-1,2,1.3,2.7,2.5,2.2,1.4-.7,2.2-1.2,2.3-1" transform="translate(0 -0.3)" style="fill:#fcf2fc"/><path id="Fill-159" d="M146,309c.1.1-.4.9-1.9,1.7a3,3,0,0,1-2.9,0,2.78,2.78,0,0,1-1.3-1.5,3.29,3.29,0,0,1,.2-2c.5-1.2.7-1.9.4-2.7a2.12,2.12,0,0,0-1.4-1.5,4,4,0,0,0-2.2-.1c-.1-.1.7-1.1,2.4-.7a3.31,3.31,0,0,1,2.2,2,3.85,3.85,0,0,1,.2,1.9c-.1.6-.4,1.2-.5,1.7-1,2,1.3,2.7,2.5,2.2,1.4-.7,2.2-1.2,2.3-1" transform="translate(0 -0.3)" style="fill:#fcf2fc"/><path id="Fill-161" d="M157.5,303c.1-.1,1.1.1,2.4,1.1a2.91,2.91,0,0,1,1.1,2.6,2.17,2.17,0,0,1-1.1,1.6,4.06,4.06,0,0,1-2.1.5,4,4,0,0,0-2.8.5,2.09,2.09,0,0,0-1,1.7c0,1.2.8,1.8.6,2,0,.1-1.3-.3-1.6-1.9a2.93,2.93,0,0,1,1.1-2.6,3.7,3.7,0,0,1,1.8-.8,12.75,12.75,0,0,1,1.9-.1c2.3.2,2.2-2,1.3-2.9s-1.7-1.5-1.6-1.7" transform="translate(0 -0.3)" style="fill:#fcf2fc"/><path id="Fill-163" d="M106,367c.1.1-.4.9-1.9,1.7a3,3,0,0,1-2.9,0,2.78,2.78,0,0,1-1.3-1.5,3.29,3.29,0,0,1,.2-2c.5-1.2.7-1.9.4-2.7a2.12,2.12,0,0,0-1.4-1.5,4,4,0,0,0-2.2-.1c-.1-.1.7-1.1,2.4-.7a3.31,3.31,0,0,1,2.2,2,3.85,3.85,0,0,1,.2,1.9c-.1.6-.4,1.2-.5,1.7-1,2,1.3,2.7,2.5,2.2,1.4-.7,2.2-1.2,2.3-1" transform="translate(0 -0.3)" style="fill:#fcf2fc"/><path id="Fill-165" d="M134,329c-.1.1-.8-.4-1.6-1.7a3.22,3.22,0,0,1-.1-2.9,2.37,2.37,0,0,1,1.3-1.3,2.7,2.7,0,0,1,1.8.1c1.1.4,1.7.6,2.4.3a2.24,2.24,0,0,0,1.3-1.4,4.22,4.22,0,0,0,0-2.1c.1-.1,1,.6.8,2.3a3.18,3.18,0,0,1-1.7,2.3,3.23,3.23,0,0,1-1.7.3,15.46,15.46,0,0,1-1.5-.4c-1.8-.9-2.4,1.4-1.9,2.5a9.92,9.92,0,0,1,.9,2" transform="translate(0 -0.3)" style="fill:#fcf2fc"/><path id="Fill-167" d="M140,349c-.1.1-.8-.4-1.6-1.7a3.22,3.22,0,0,1-.1-2.9,2.37,2.37,0,0,1,1.3-1.3,2.7,2.7,0,0,1,1.8.1c1.1.4,1.7.6,2.4.3a2.24,2.24,0,0,0,1.3-1.4,4.22,4.22,0,0,0,0-2.1c.1-.1,1,.6.8,2.3a3.18,3.18,0,0,1-1.7,2.3,3.23,3.23,0,0,1-1.7.3,15.46,15.46,0,0,1-1.5-.4c-1.8-.9-2.4,1.4-1.9,2.5a9.92,9.92,0,0,1,.9,2" transform="translate(0 -0.3)" style="fill:#fcf2fc"/><path id="Fill-169" d="M100.2,342c-.1,0-.4-.9-.1-2.5a3.46,3.46,0,0,1,1.7-2.3,2.25,2.25,0,0,1,1.8,0,3.48,3.48,0,0,1,1.3,1.4c.5,1.1.9,1.7,1.6,2a2.09,2.09,0,0,0,1.9-.1c1-.6,1.2-1.6,1.4-1.6s.3,1.2-.9,2.3a3.07,3.07,0,0,1-2.7.5,3.32,3.32,0,0,1-1.4-1,11.91,11.91,0,0,1-.9-1.5c-.8-2-2.7-.7-3,.5s-.5,2.3-.7,2.3" transform="translate(0 -0.3)" style="fill:#fcf2fc"/><path id="Fill-171" d="M136.2,366c-.1,0-.4-.9-.1-2.5a3.46,3.46,0,0,1,1.7-2.3,2.25,2.25,0,0,1,1.8,0,3.48,3.48,0,0,1,1.3,1.4c.5,1.1.9,1.7,1.6,2a2.09,2.09,0,0,0,1.9-.1c1-.6,1.2-1.6,1.4-1.6s.3,1.2-.9,2.3a2.79,2.79,0,0,1-2.7.5,3.32,3.32,0,0,1-1.4-1,11.91,11.91,0,0,1-.9-1.5c-.8-2-2.7-.7-3,.5s-.5,2.3-.7,2.3" transform="translate(0 -0.3)" style="fill:#fcf2fc"/><path id="Fill-173" d="M134.2,292c-.1,0-.4-.9-.1-2.5a3.46,3.46,0,0,1,1.7-2.3,2.25,2.25,0,0,1,1.8,0,3.48,3.48,0,0,1,1.3,1.4c.5,1.1.9,1.7,1.6,2a2.09,2.09,0,0,0,1.9-.1c1-.6,1.2-1.6,1.4-1.6s.3,1.2-.9,2.3a2.79,2.79,0,0,1-2.7.5,3.32,3.32,0,0,1-1.4-1,11.91,11.91,0,0,1-.9-1.5c-.8-2-2.7-.7-3,.5-.4,1.4-.5,2.3-.7,2.3" transform="translate(0 -0.3)" style="fill:#fcf2fc"/><path id="Fill-175" d="M121.8,376c-.1.1-1,0-2.4-.8a3.1,3.1,0,0,1-1.4-2.4,2.25,2.25,0,0,1,.8-1.7,3.7,3.7,0,0,1,1.9-.7,4.48,4.48,0,0,0,2.6-.7,1.93,1.93,0,0,0,.7-1.8c-.2-1.2-1-1.7-.9-1.8s1.3.1,1.8,1.7a2.91,2.91,0,0,1-.7,2.7,2.82,2.82,0,0,1-1.6.9,11.27,11.27,0,0,1-1.8.3c-2.2,0-1.8,2.2-.8,2.9s1.9,1.2,1.8,1.4" transform="translate(0 -0.3)" style="fill:#fcf2fc"/><path id="Fill-177" d="M79.2,303c.1-.1.9.5,1.5,1.8a2.89,2.89,0,0,1-.1,2.7,2.16,2.16,0,0,1-1.6,1.1,4.43,4.43,0,0,1-2-.3c-1.1-.5-1.8-.8-2.6-.5a2.11,2.11,0,0,0-1.5,1.2c-.5,1.1-.1,1.9-.3,2s-1-.7-.6-2.3a3.05,3.05,0,0,1,2-2,3.6,3.6,0,0,1,1.8-.1,7.58,7.58,0,0,1,1.6.6c1.9,1,2.7-1.1,2.3-2.2-.2-1.1-.7-1.9-.5-2" transform="translate(0 -0.3)" style="fill:#fcf2fc"/><path id="Fill-179" d="M121.2,296c.1-.1.9.5,1.5,1.8a2.89,2.89,0,0,1-.1,2.7,2.16,2.16,0,0,1-1.6,1.1,3.81,3.81,0,0,1-1.9-.3c-1.1-.5-1.8-.8-2.6-.5A2.11,2.11,0,0,0,115,302c-.5,1.1-.1,1.9-.3,2s-1-.7-.6-2.3a3.05,3.05,0,0,1,2-2,3.6,3.6,0,0,1,1.8-.1,7.58,7.58,0,0,1,1.6.6c1.9,1,2.7-1.1,2.3-2.2s-.8-1.9-.6-2" transform="translate(0 -0.3)" style="fill:#fcf2fc"/><path id="Fill-181" d="M96.5,338a8.08,8.08,0,0,1,0-2.5c.1-1.6.3-3.9.6-6.7.5-5.7,1.4-13.5,2.4-22.2a25.72,25.72,0,0,0,0-6.2,10,10,0,0,0-2.3-5.1,15.11,15.11,0,0,0-8.6-5,27.27,27.27,0,0,0-7-.6,12.76,12.76,0,0,1-2.6.1,8.15,8.15,0,0,1,2.6-.5,23,23,0,0,1,7.3.2,16.31,16.31,0,0,1,9.3,5.2,11.12,11.12,0,0,1,2.6,5.7,23.58,23.58,0,0,1,0,6.5c-1,8.7-2,16.5-2.8,22.2-.4,2.8-.7,5.1-1,6.7a7.32,7.32,0,0,1-.5,2.2" transform="translate(0 -0.3)" style="fill:#241352"/><path id="Fill-183" d="M97,337.1c0,.3-8.2,1.5-18.4,2.5s-18.5,1.6-18.6,1.3,8.2-1.5,18.4-2.5S97,336.8,97,337.1" transform="translate(0 -0.3)" style="fill:#241352"/><path id="Fill-185" d="M187.7,351.1c.3-2.2.3-4.3,1.4-6.2,2.4-3.9,5.7-2.9,9-1.2s6.4,2.8,10,1.1c5.6-2.5,8.3-11.3,2.9-15.4-1.7-1.3-3.5.9-3.2,2.6.3,2.4,1.5,5-.5,7-2.6,2.7-5.7.4-8.3-.8a10.57,10.57,0,0,0-8.7-.4c-5,2.1-8.6,9.1-4.7,13.9.7.6,2,.3,2.1-.6" transform="translate(0 -0.3)" style="fill:#476af5"/><path id="Fill-187" d="M225,270.8c-4.1,3.8-5.6,9.8-1.7,14.4a11.66,11.66,0,0,0,15.3,1.8c11-8.3-.5-23.6-12.4-20.5a1.94,1.94,0,0,0,.5,3.8c3.5.2,7.2.3,10,2.7a6.87,6.87,0,0,1,.6,9.8c-6.5,7.8-17.8-3.7-10.9-10.6.8-1-.5-2.3-1.4-1.4" transform="translate(0 -0.3)" style="fill:#ff6f47"/><path id="Fill-189" d="M62,263.8c-4.1,3.8-5.6,9.8-1.7,14.3a11.66,11.66,0,0,0,15.3,1.8c11-8.3-.5-23.6-12.4-20.5a1.94,1.94,0,0,0,.5,3.8c3.5.2,7.2.3,10,2.7a7,7,0,0,1,.6,9.8c-6.5,7.8-17.8-3.7-10.9-10.6a1,1,0,0,0-1.4-1.3" transform="translate(0 -0.3)" style="fill:#7cabff"/><path id="Fill-191" d="M7.1,357c2.6,9.9,5.4,19.7,8.4,29.5.7,2.4,2.9,3.1,4.8,1.7,7.7-5.4,15.5-10.7,22.8-16.7a2.94,2.94,0,0,0-.3-4.5c-8.6-6.1-20.1-15-31-15.1-2.8,0-4.7,4-1.9,5.7,4.4,2.6,9.6,3.5,14.3,5.6a71.22,71.22,0,0,1,15.5,8.6c.1-1.6.2-3.3.3-4.9-8.2,5.2-15.9,11-23.7,16.8l4.6.9c-3.3-9.7-6.7-19.3-10.4-28.9-.7-1.9-4-.8-3.4,1.3" transform="translate(0 -0.3)" style="fill:#ff6f47"/><path id="Fill-193" d="M236.9,315.7a125.08,125.08,0,0,0,21.2,1.2c2.6-.1,2.5-3.3,0-3.5a144.41,144.41,0,0,0-20.8-.1c-1.4.2-1.9,2.2-.4,2.4" transform="translate(0 -0.3)" style="fill:#fb5d6d"/><path id="Fill-195" d="M4.9,315.7a125.08,125.08,0,0,0,21.2,1.2c2.6-.1,2.5-3.3,0-3.5a144.41,144.41,0,0,0-20.8-.1c-1.4.2-1.9,2.2-.4,2.4" transform="translate(0 -0.3)" style="fill:#fb5d6d"/><path id="Fill-197" d="M50.9,304.4l-.3-.3c-1.5-1.3-4-1.6-5.4,0a3.9,3.9,0,0,0,0,5.4l.3.3a3.92,3.92,0,0,0,5.5,0c1.2-1.4,1.5-4-.1-5.4" transform="translate(0 -0.3)" style="fill:#241352"/><path id="Fill-199" d="M148.5,338c-.3,0-.5-6-1-13.5s-.3-13.6,0-13.5.5,6,1,13.5.3,13.5,0,13.5" transform="translate(0 -0.3)" style="fill:#241352"/><polygon id="Fill-201" points="189 280.8 207.9 275.7 209 279 190 284.7 189 280.8" style="fill:#241352"/><path id="Fill-203" d="M200,280a2,2,0,1,1-2-2,2,2,0,0,1,2,2" transform="translate(0 -0.3)" style="fill:#e6e2eb"/><path id="Fill-205" d="M125.8,230c-.2.1-.7-.1-1.2-.6s-.7-1.1-.4-1.3.7.1,1.2.6.7,1.1.4,1.3" transform="translate(0 -0.3)" style="fill:#241352"/><path id="Fill-207" d="M110.8,232c-.2.1-.7-.1-1.2-.6s-.7-1.1-.4-1.3.7.1,1.2.6.7,1.1.4,1.3" transform="translate(0 -0.3)" style="fill:#241352"/><polygon id="Fill-209" points="94 154.4 94 191.6 69.4 191.6 68.6 205.7 54.2 190.8 0 190.8 4.8 151.7 94 154.4" style="fill:#fb5d6d"/><path id="Fill-211" d="M83.8,166.8c-23.8-.4-47.7-.5-71.5-.1-.5,0-.5.6,0,.6,23.8.4,47.7.3,71.5-.1a.2.2,0,1,0,0-.4" transform="translate(0 -0.3)" style="fill:#e6e2eb"/><path id="Fill-213" d="M83.8,173.8c-23.8-.4-47.7-.5-71.5-.1-.5,0-.5.6,0,.6,23.8.4,47.7.3,71.5-.1a.2.2,0,1,0,0-.4" transform="translate(0 -0.3)" style="fill:#e6e2eb"/><path id="Fill-215" d="M82.8,180.8c-14.4-.4-29.1-.5-43.5-.1a.3.3,0,0,0,0,.6c14.4.4,29.1.3,43.5-.1a.2.2,0,1,0,0-.4" transform="translate(0 -0.3)" style="fill:#e6e2eb"/></g></g></g></svg>