<svg id="Layer_1" data-name="Layer 1" xmlns="http://www.w3.org/2000/svg" viewBox="0 0 698.79 493.09"><title>forgot</title><g id="freepik--background-complete--inject-2"><path d="M117.08,475.38c22.86-18.72,25.82-50.16,22.58-77.94-.54-4.64-.43-9.58-3-13.47s-8-6.26-12.08-4c-3.31,1.91-4.56,6.06-6.25,9.54a27.67,27.67,0,0,1-10.2,11.4c-2.88,1.78-6.51,3-9.61,1.65-4.25-1.88-5.17-7.38-5.52-12Q92,377.67,91,364.73A43.43,43.43,0,0,0,88.5,351.1c-1.82-4.26-5.37-8.07-9.91-8.93s-9.91,2.11-10.44,6.72a43,43,0,0,0,.33,5.78,4.94,4.94,0,0,1-2.51,4.8c-1.82.7-3.8-.46-5.32-1.65-5.22-4.26-9-10-12.55-15.74s-7-11.56-11.84-16.35-11.21-8.25-17.95-8.09S4.75,322.51,3.59,329.2s3.22,13,7.85,17.89a104.32,104.32,0,0,0,23.45,18.53,8.6,8.6,0,0,1,4,3.57c1.27,3-1.44,6.3-4.43,7.58-3.4,1.43-7.23,1.38-10.85,2.11S16.11,381.52,15,385c-1.52,4.95,2.89,9.51,7.08,12.44a90.81,90.81,0,0,0,27.76,12.93c3.55.95,7.27,1.75,10.24,3.91s5,6.18,3.59,9.58-5.64,4.79-9.3,4.43-7.05-2-10.61-3c-6.6-1.86-14.86-.74-18.59,5.09a14.5,14.5,0,0,0-.51,13.08,33.82,33.82,0,0,0,8,10.83,90.24,90.24,0,0,0,40.66,23.52c15.36,3.88,29.32,4.13,43.73-2.44" transform="translate(-3.41 -3)" style="fill:#ebebeb"/><path d="M119.08,496a200.86,200.86,0,0,0-10.78-37.47A411.21,411.21,0,0,0,88,415.29l-6-11c-2-3.63-3.88-7.23-6-10.63A208.25,208.25,0,0,0,62.8,374.78c-4.51-5.79-9-11.14-13.21-16.1s-8.26-9.49-12.17-13.49a167.86,167.86,0,0,0-19.67-17.44c-2.48-1.88-4.46-3.3-5.8-4.2l-1.54-1.05a4.86,4.86,0,0,0-.54-.33,5.12,5.12,0,0,0,.5.39l1.5,1.11c1.32,1,3.3,2.38,5.71,4.29a174.4,174.4,0,0,1,19.47,17.58c3.85,4,7.88,8.55,12.11,13.52s8.69,10.32,13.21,16.12A206.26,206.26,0,0,1,75.58,394c2.1,3.39,4,7,6,10.6l5.92,11.05a424,424,0,0,1,20.24,43.12,204.69,204.69,0,0,1,10.9,37.33" transform="translate(-3.41 -3)" style="fill:#e0e0e0"/><path d="M75.88,393.54a10.44,10.44,0,0,0,.26-2c.14-1.29.27-3.19.4-5.52.28-4.65.45-11.09.61-18.16s.43-13.54.81-18.17c.17-2.33.35-4.19.48-5.5a12.34,12.34,0,0,0,.13-2,10.24,10.24,0,0,0-.41,2c-.22,1.29-.46,3.17-.69,5.48-.52,4.66-.86,11.1-1,18.17s-.28,13.42-.38,18.16c-.08,2.23-.13,4.1-.18,5.52A10.13,10.13,0,0,0,75.88,393.54Z" transform="translate(-3.41 -3)" style="fill:#e0e0e0"/><path d="M14.73,387.4h2.42c1.56,0,3.8,0,6.61.08,5.56.12,13.21.55,21.72,1.42s16.06,2,21.55,3c2.74.48,5,.9,6.49,1.2l1.75.35c.41,0,.63.1.63,0a1.85,1.85,0,0,0-.6-.2l-1.73-.48c-1.51-.38-3.72-.89-6.46-1.42-5.47-1.1-13.1-2.31-21.57-3.2a212.49,212.49,0,0,0-21.78-1.21c-2.79,0-5,0-6.61.15l-1.78.12A2,2,0,0,0,14.73,387.4Z" transform="translate(-3.41 -3)" style="fill:#e0e0e0"/><path d="M107.54,457.47a5.75,5.75,0,0,0,.33-.77c.23-.58.49-1.32.84-2.23.73-2,1.65-4.81,2.88-8.26,2.32-7,5.25-16.89,8.35-27.81s5.93-20.76,8.14-27.84c1.11-3.47,2-6.31,2.66-8.39.3-.93.53-1.66.71-2.28a3.89,3.89,0,0,0,.22-.81,3.08,3.08,0,0,0-.35.76c-.21.59-.5,1.34-.84,2.24-.73,1.95-1.65,4.79-2.86,8.26-2.34,7.05-5.27,16.9-8.36,27.81s-5.87,20.79-8.15,27.85c-1.09,3.46-2,6.3-2.65,8.37-.29.94-.52,1.65-.72,2.29A4,4,0,0,0,107.54,457.47Z" transform="translate(-3.41 -3)" style="fill:#e0e0e0"/><path d="M25.39,438.6a3.3,3.3,0,0,0,.81.25l2.4.56,8.82,2c7.43,1.65,17.67,4.18,29,6.95s21.57,5.19,29,6.78c3.74.79,6.76,1.4,8.86,1.78l2.41.43a4.94,4.94,0,0,0,.86.11,3,3,0,0,0-.83-.24l-2.39-.57-8.81-2c-7.43-1.65-17.67-4.18-29-6.95s-21.57-5.19-29-6.77c-3.73-.8-6.75-1.41-8.85-1.79l-2.43-.44A4.93,4.93,0,0,0,25.39,438.6Z" transform="translate(-3.41 -3)" style="fill:#e0e0e0"/><rect x="224.1" y="19.64" width="124.69" height="84.04" transform="translate(-9.03 82.12) rotate(-16.74)" style="fill:#fff"/><path d="M358.27,83.87s-.18-.51-.48-1.47-.74-2.41-1.32-4.26c-1.14-3.73-2.83-9.2-5-16.17-4.26-14-10.35-34-17.78-58.47l.43.23L214.79,39.78h0l.29-.55,24.18,80.5-.49-.27,86-25.68L349.4,86.5,356,84.57l1.65-.5.59-.15-.53.18-1.65.53-6.47,2L325.12,94.1,239,120.21l-.38.11-.11-.38c-7.39-24.52-15.61-51.79-24.25-80.48l-.11-.41.39-.11h0L333.94,3.1l.33-.1.1.33c7.32,24.56,13.31,44.72,17.51,58.78,2,7,3.66,12.42,4.75,16.16.55,1.82.94,3.23,1.24,4.22S358.27,83.87,358.27,83.87Z" transform="translate(-3.41 -3)" style="fill:#e0e0e0"/><path d="M334.06,3.45a2.92,2.92,0,0,1-.17.36l-.56,1c-.54.94-1.29,2.25-2.21,3.9l-8.34,14.32-28,47.45-.2.31-.33-.13-3.65-1.41-53.79-21-16.26-6.44-4.4-1.8L215,39.56a1.5,1.5,0,0,1-.38-.19,1.19,1.19,0,0,1,.42.11l1.15.4,4.48,1.65,16.35,6.19,53.87,20.75,3.67,1.42-.53.18c11.06-18.58,21-35.23,28.21-47.33l8.57-14.17c1-1.66,1.78-2.89,2.34-3.84l.65-1C334,3.54,334,3.43,334.06,3.45Z" transform="translate(-3.41 -3)" style="fill:#e0e0e0"/><path d="M681.5,325s-7.75-7.66-22.84,11.48A283.18,283.18,0,0,0,636.91,367s-3.77,3.89-6.24.36-5-12.65-10.56-12.19-8.68,6.14-9.43,15.21-3.07,28.9-3.3,30.69-1.65,4.11-3.78,2-12.85-20.27-21.19-14.68-6.23,31.24-6,34-.57,3.85-2,4.25-4.44-6.05-7.73-11.08-8-10.34-12.49-6.69-9.33,21.6,2.1,54.58l6.29,14.86,16.11,2.3c34.79,2.79,51-6.34,53.37-11.65s-3.88-8.5-9.59-10.42-12.72-3.3-12.67-4.7.86-2.43,3.62-3,28.07-4.95,31.38-14.38-16.93-15.35-19.52-16.83-.68-3.52,1-4.16,20.28-7.9,28.88-10.87,13.35-7.3,12.37-13-10.4-5.63-14.45-7.17-1.2-6.12-1.2-6.12a282.93,282.93,0,0,0,24.22-28.66c14.75-19.42,5.14-25.08,5.14-25.08" transform="translate(-3.41 -3)" style="fill:#ebebeb"/><path d="M667.89,342a2.26,2.26,0,0,1-.26.42l-.85,1.19c-.79,1.05-1.9,2.56-3.3,4.47-2.89,3.88-7.1,9.47-12.35,16.34-10.49,13.74-25.15,32.6-41.44,53.34L568,471l-12.57,16.17L552,491.53l-.91,1.12c-.22.25-.31.38-.33.36a2.57,2.57,0,0,1,.26-.41l.85-1.17,3.3-4.49c2.87-3.88,7.1-9.47,12.34-16.34C578,456.86,592.71,438,609,417.26s31-39.54,41.64-53.19c5.27-6.79,9.56-12.29,12.57-16.16,1.45-1.86,2.61-3.3,3.41-4.39l.93-1.12C667.76,342.15,667.87,342,667.89,342Z" transform="translate(-3.41 -3)" style="fill:#e0e0e0"/><path d="M623.18,368.08a20.37,20.37,0,0,1,.62,4.33c.24,2.67.46,6.39.61,10.5s.21,7.51.29,10.5a24.42,24.42,0,0,1,0,4.36,20.25,20.25,0,0,1-.59-4.32c-.22-2.7-.4-6.41-.55-10.51s-.24-7.51-.36-10.5A25.39,25.39,0,0,1,623.18,368.08Z" transform="translate(-3.41 -3)" style="fill:#e0e0e0"/><path d="M626.09,398.35a171.41,171.41,0,0,1,17.06-1.87c9.43-.77,17.11-1.22,17.13-1a168.76,168.76,0,0,1-17.06,1.85C633.79,398.14,626.12,398.58,626.09,398.35Z" transform="translate(-3.41 -3)" style="fill:#e0e0e0"/><path d="M598.69,430.19a27.44,27.44,0,0,1,4.4.71c2.7.51,6.42,1.22,10.55,1.88s7.88,1.16,10.6,1.51a27.38,27.38,0,0,1,4.41.71,21.46,21.46,0,0,1-4.46-.1c-2.76-.2-6.6-.6-10.68-1.27s-7.88-1.47-10.56-2.13A21.2,21.2,0,0,1,598.69,430.19Z" transform="translate(-3.41 -3)" style="fill:#e0e0e0"/><path d="M590,403.4a19.33,19.33,0,0,1,1.65,3.79c.88,2.39,2,5.69,3.3,9.36s2.32,7,3.06,9.45a21.73,21.73,0,0,1,1,4,18.29,18.29,0,0,1-1.65-3.8c-.89-2.38-2-5.68-3.3-9.35s-2.31-7-3.06-9.45A18.76,18.76,0,0,1,590,403.4Z" transform="translate(-3.41 -3)" style="fill:#e0e0e0"/><path d="M562.28,428.44a34.41,34.41,0,0,1,2,4.87c1.14,3.06,2.66,7.29,4.3,12s3,8.95,4.06,12a32,32,0,0,1,1.44,5.08,31.73,31.73,0,0,1-2-5c-1.14-3-2.66-7.27-4.29-12s-3.08-8.95-4.07-12.06A30.72,30.72,0,0,1,562.28,428.44Z" transform="translate(-3.41 -3)" style="fill:#e0e0e0"/><path d="M574,461.52a38.87,38.87,0,0,1,5.59.73c3.44.54,8.26,1.28,13.46,2s10,1.22,13.5,1.65a42.29,42.29,0,0,1,5.6.74,33.29,33.29,0,0,1-5.65-.13c-3.49-.23-8.26-.66-13.56-1.37s-10-1.54-13.46-2.21A34.38,34.38,0,0,1,574,461.52Z" transform="translate(-3.41 -3)" style="fill:#e0e0e0"/><rect x="589.37" y="181.15" width="128.14" height="93.64" transform="translate(402.21 871.15) rotate(-88.25)" style="fill:#f5f5f5"/><rect x="572.14" y="198.18" width="128.14" height="93.64" transform="translate(368.49 870.43) rotate(-88.25)" style="fill:#fff"/><path d="M681,310.44a3.32,3.32,0,0,1,0-.63V308c0-1.65.08-4,.16-7,.17-6.13.4-15,.69-26.31.65-22.54,1.56-54.5,2.63-92.33l.38.39-93.59-2.82h0l.45-.41c-1.51,47.89-2.88,92.13-4,128.07l-.35-.36,68,2.26,18.91.66,5,.2,1.74.08h-1.66l-5-.11-18.83-.48L587.36,308H587v-.35c1.07-36,2.39-80.24,3.83-128.09v-.43h.44L684.87,182h.39v.4c-1.23,38-2.28,70-3,92.58-.38,11.23-.69,20.11-.89,26.21-.12,3-.2,5.31-.26,6.92a9.42,9.42,0,0,1-.09,1.76A.78.78,0,0,0,681,310.44Z" transform="translate(-3.41 -3)" style="fill:#e0e0e0"/><path d="M648.47,209.16c0,.24-10.19.11-22.74-.27S603,208,603,207.77s10.2-.12,22.75.26S648.47,208.92,648.47,209.16Z" transform="translate(-3.41 -3)" style="fill:#e0e0e0"/><path d="M672.65,221.05c0,.23-15.69,0-35-.65s-35-1.27-35-1.5,15.69,0,35.06.64S672.66,220.8,672.65,221.05Z" transform="translate(-3.41 -3)" style="fill:#e0e0e0"/><path d="M672.3,232.66c0,.23-15.71,0-35.06-.65s-35-1.27-35-1.5,15.71,0,35.06.64S672.3,232.41,672.3,232.66Z" transform="translate(-3.41 -3)" style="fill:#e0e0e0"/><path d="M671.94,244.27c0,.23-15.69,0-35.05-.65s-35-1.27-35-1.5,15.71,0,35.06.64S672,244.07,671.94,244.27Z" transform="translate(-3.41 -3)" style="fill:#e0e0e0"/><path d="M671.59,255.88c0,.23-15.71,0-35.05-.65s-35-1.27-35-1.5,15.71,0,35.06.64S671.59,255.63,671.59,255.88Z" transform="translate(-3.41 -3)" style="fill:#e0e0e0"/><path d="M671.24,267.49c0,.23-15.7,0-35.06-.65s-35-1.27-35-1.5,15.71,0,35.06.64S671.24,267.19,671.24,267.49Z" transform="translate(-3.41 -3)" style="fill:#e0e0e0"/><path d="M670.88,279.1c0,.23-15.71,0-35-.65s-35-1.27-35-1.5,15.69,0,35,.64S670.9,278.85,670.88,279.1Z" transform="translate(-3.41 -3)" style="fill:#e0e0e0"/><path d="M638.11,289.72c0,.23-8.44.16-18.84-.15s-18.83-.78-18.83-1,8.44-.17,18.85.15S638.11,289.47,638.11,289.72Z" transform="translate(-3.41 -3)" style="fill:#e0e0e0"/><rect x="395.58" y="67.93" width="79.17" height="99.02" transform="translate(161.67 475.29) rotate(-68.29)" style="fill:#fff"/><path d="M495.79,99l-.45-.16-1.29-.5-4.95-2-18.88-7.51L403.73,62.4l.2-.08-29.26,73.54h0l-.1-.23,92,36.66h-.18c8.85-22.16,16.2-40.52,21.32-53.36l6-14.86,1.65-3.91.54-1.36-.51,1.34c-.34.89-.86,2.2-1.53,3.9-1.36,3.43-3.31,8.47-5.88,14.86-5.11,12.85-12.42,31.26-21.22,53.48v.13h-.14l-92.12-36.45h-.16v-.16h0l29.3-73.55v-.14h.13l66.65,26.62,18.78,7.53,5,2,1.28.51Z" transform="translate(-3.41 -3)" style="fill:#e0e0e0"/><rect x="400.44" y="71.46" width="69.2" height="92.07" transform="translate(161.54 475.21) rotate(-68.29)" style="fill:#ebebeb"/><polygon points="376.4 129.81 422.19 101.73 430.75 134.1 448.62 125.75 461.94 163.86 376.4 129.81" style="fill:#e0e0e0"/><path d="M453.91,110.3a7.25,7.25,0,1,1-4.06-9.42h0a7.24,7.24,0,0,1,4.05,9.4Z" transform="translate(-3.41 -3)" style="fill:#e0e0e0"/><path d="M167,212.46a4.24,4.24,0,0,0,2,.31,3.51,3.51,0,0,0,2.12-1,20.71,20.71,0,0,0,1.73-2.86l10.72-18.69,3.56-6.18,1.9-3.3a11.76,11.76,0,0,0,.86-1.65,3.19,3.19,0,0,0-.94-3.25,15.67,15.67,0,0,0-1.65-1l-3.68-2.05-7.67-4.29-34.12-19.14a3.08,3.08,0,0,0-4,1l-2.56,4.39c-1.65,2.91-3.3,5.8-4.95,8.62l-9.58,16.37c-.38.64-.76,1.29-1.12,1.93a3.33,3.33,0,0,0-.55,1.88,3,3,0,0,0,.68,1.79,5.24,5.24,0,0,0,1.65,1.14l7.22,4.09,12.91,7.34,18.7,10.68,5.07,2.94,1.3.78c.3.18.45.28.43.29l-.46-.21-1.36-.71L160,208.79l-18.85-10.44L128.25,191,121,187a5.82,5.82,0,0,1-1.87-1.3,3.78,3.78,0,0,1-.84-2.25,3.93,3.93,0,0,1,.62-2.31l1.13-1.93,9.46-16.34,4.95-8.62,2.6-4.44a3.93,3.93,0,0,1,5.13-1.27l34.09,19.21,7.66,4.32,3.65,2.08a15.92,15.92,0,0,1,1.82,1.09,3.62,3.62,0,0,1,1.17,1.89,3.89,3.89,0,0,1,0,2.14,11.83,11.83,0,0,1-.94,1.8l-1.93,3.31-3.6,6.16c-4.61,7.79-8.34,14.12-11,18.56a22.15,22.15,0,0,1-1.85,2.86,3.71,3.71,0,0,1-2.28,1,3.3,3.3,0,0,1-1.52-.25A2.13,2.13,0,0,1,167,212.46Z" transform="translate(-3.41 -3)" style="fill:#e0e0e0"/><polygon points="154.85 175.6 159.01 182.99 150.42 183.15 141.84 183.3 146.26 175.75 150.69 168.2 154.85 175.6" style="fill:#e0e0e0"/></g><g id="freepik--Character--inject-2"><path d="M187.39,388.56l-49.86-50.09,25.07-46.05c25.07-32.1,78.15-30,78.15-30A304.3,304.3,0,0,1,319,267.19c42.17,8.26,38.76,36.1,38.76,36.1l5.65,103.33,6.06,84.15L214,493.91l-26.6-105.29" transform="translate(-3.41 -3)" style="fill:#2d43c2"/><path d="M271.15,489l-139.27,1.66a45.28,45.28,0,0,1-41.47-64.58L150,315.63l54.25,36.66-37,76.75,112.73,2Z" transform="translate(-3.41 -3)" style="fill:#2d43c2"/><path d="M352.85,286.45,464.61,459l-65.2,4.26s-39-61.35-38.07-60.09C362.89,405.47,352.85,286.45,352.85,286.45Z" transform="translate(-3.41 -3)" style="fill:#2d43c2"/><path d="M201.41,362.22a2.74,2.74,0,0,1,.15-.9c.16-.66.35-1.48.59-2.51.51-2.16,1.27-5.3,2-9.19s1.65-8.59,2.2-13.81a72.4,72.4,0,0,0,0-17,44.66,44.66,0,0,0-5.77-15.87,64.92,64.92,0,0,0-8.25-11.18,79.81,79.81,0,0,0-6.78-6.61,31.29,31.29,0,0,1-2.6-2.27,5,5,0,0,1,.76.47c.46.35,1.2.83,2.06,1.54a67.23,67.23,0,0,1,7,6.39,61.3,61.3,0,0,1,8.52,11.18,44.48,44.48,0,0,1,5.95,16.17,71.46,71.46,0,0,1-.13,17.23,137.78,137.78,0,0,1-2.38,13.83c-.86,3.92-1.65,7-2.33,9.19-.3,1.07-.56,1.9-.74,2.46A5.1,5.1,0,0,1,201.41,362.22Z" transform="translate(-3.41 -3)" style="fill:#263238"/><path d="M196.92,368.16a14,14,0,0,1-1,2.5c-.66,1.65-1.65,3.86-2.92,6.6-2.53,5.6-6.11,13.3-10.24,21.72s-8,16-10.92,21.47c-1.45,2.71-2.64,4.95-3.48,6.39a17.67,17.67,0,0,1-1.39,2.29,16.65,16.65,0,0,1,1.09-2.44c.84-1.65,1.93-3.86,3.3-6.52l10.69-21.47c4-8.38,7.73-15.94,10.47-21.6,1.29-2.66,2.34-4.88,3.17-6.61A15.48,15.48,0,0,1,196.92,368.16Z" transform="translate(-3.41 -3)" style="fill:#263238"/><path d="M271.15,489v-1.14c.08-.79.2-1.89.33-3.3.33-2.94.8-7.12,1.37-12.38,1.23-10.69,3-25.72,5-43.44l.39.43H237.07L165.21,429l-21.8-.14-5.93-.08H135.4a2.35,2.35,0,0,1,.53,0h1.55l5.93-.08,21.8-.13,72-.12h41.59v.43c-2.18,17.7-4,32.73-5.34,43.4-.66,5.25-1.2,9.43-1.65,12.37q-.27,2.08-.45,3.3l-.13.85C271.19,488.89,271.17,489,271.15,489Z" transform="translate(-3.41 -3)" style="fill:#263238"/><path d="M168.18,430.26a34.49,34.49,0,0,1-2.77-3.49,54.23,54.23,0,0,0-16.22-13.69,38.92,38.92,0,0,1-3.9-2.15,15.28,15.28,0,0,1,4.18,1.66,44.8,44.8,0,0,1,16.42,13.85A16.28,16.28,0,0,1,168.18,430.26Z" transform="translate(-3.41 -3)" style="fill:#263238"/><path d="M365.73,441.19a7.72,7.72,0,0,1-.23-1.44c-.11-1-.26-2.37-.46-4.11-.38-3.57-.89-8.74-1.44-15.13-1.14-12.8-2.44-30.5-3.6-50.05s-2-37.29-2.43-50.13c-.23-6.42-.39-11.56-.46-15.21,0-1.73,0-3.1-.08-4.12a11.53,11.53,0,0,1,0-1.44,8.57,8.57,0,0,1,.15,1.44c0,1,.13,2.39.23,4.12.18,3.67.43,8.84.74,15.18.61,12.83,1.52,30.54,2.68,50.11s2.38,37.24,3.3,50c.5,6.33.89,11.56,1.17,15.16.14,1.66.23,3.11.32,4.12A7.81,7.81,0,0,1,365.73,441.19Z" transform="translate(-3.41 -3)" style="fill:#263238"/><path d="M241.41,347.3a17.21,17.21,0,0,1,.18-2.26c.2-1.57.45-3.67.76-6.24.73-5.45,1.65-12.92,2.87-21.57l.63.4-10.68,7.48-10.87,7.56-.78.55.14-1c1.32-8.57,2.44-16,3.3-21.47.43-2.52.76-4.6,1-6.16a13.76,13.76,0,0,1,.46-2.19,12,12,0,0,1-.19,2.24c-.2,1.56-.45,3.64-.78,6.2-.74,5.41-1.78,12.83-3,21.47l-.63-.4,10.85-7.6,10.7-7.44.78-.55-.13.94c-1.28,8.62-2.38,16.09-3.17,21.47-.42,2.56-.75,4.66-1,6.21A13,13,0,0,1,241.41,347.3Z" transform="translate(-3.41 -3)" style="fill:#e0e0e0"/><path d="M303.57,354a12.88,12.88,0,0,1-1.65-1.57c-1.07-1.15-2.53-2.69-4.31-4.57l-14.75-16,.71-.25c-.35,4.05-.71,8.44-1.09,13s-.77,9.08-1.12,13.21l-.08,1-.63-.71L266.3,341.89l-4.1-4.73a11.82,11.82,0,0,1-1.39-1.76,13.61,13.61,0,0,1,1.66,1.65l4.26,4.56,14.56,16-.71.24c.35-4.11.71-8.57,1.11-13.21s.76-8.95,1.11-13l.08-.94.63.7L298,347.57l4.14,4.74A13.19,13.19,0,0,1,303.57,354Z" transform="translate(-3.41 -3)" style="fill:#e0e0e0"/><path d="M334.85,351.78a11.71,11.71,0,0,1-1.12,2l-3.31,5.32-11.79,18.3-.39-.63,12.81-2.21,13.05-2.2.94-.17-.45.71-12,17.94L328.9,396a14.57,14.57,0,0,1-1.35,1.8,15.64,15.64,0,0,1,1.12-1.95l3.31-5.29,11.8-18.16.42.62-13.05,2.27-12.86,2.18-1,.14.53-.77,12-18.17,3.54-5.2A17.56,17.56,0,0,1,334.85,351.78Z" transform="translate(-3.41 -3)" style="fill:#e0e0e0"/><path d="M293.25,383.78a12.35,12.35,0,0,1-1.12,2l-3.31,5.33-11.77,18.29-.41-.63,12.84-2.21,13.07-2.22.94-.15-.55.78-12.05,17.95L287.34,428a11.89,11.89,0,0,1-1.36,1.79,15.7,15.7,0,0,1,1.13-1.95c.85-1.32,2-3.09,3.3-5.27l11.81-18.17.41.63-13.05,2.26-12.86,2.17-.94.16.52-.79,12-18.17,3.55-5.2A16.05,16.05,0,0,1,293.25,383.78Z" transform="translate(-3.41 -3)" style="fill:#e0e0e0"/><path d="M383.14,351.42a16.52,16.52,0,0,1-1.12,2l-3.31,5.33L366.94,377l-.41-.63,12.84-2.21,13.07-2.22.94-.15-.53.78-12.07,17.95c-1.46,2.12-2.64,3.85-3.55,5.14a11.81,11.81,0,0,1-1.36,1.8,17.14,17.14,0,0,1,1.14-1.95l3.31-5.27,11.8-18.16.42.62L379.49,375l-12.87,2.18-.92.16.51-.79,12-18.17,3.55-5.2A11.1,11.1,0,0,1,383.14,351.42Z" transform="translate(-3.41 -3)" style="fill:#e0e0e0"/><path d="M435,434.55a13,13,0,0,1-1.65-1.49l-4.53-4.36-15.54-15.22.69-.28c-.13,4.06-.26,8.45-.41,13s-.33,9.11-.48,13.21v1l-.68-.68-15.12-15.44L393,419.77a14.6,14.6,0,0,1-1.49-1.65,13.71,13.71,0,0,1,1.65,1.49l4.5,4.34L413,439.18l-.71.28c.13-4.13.28-8.59.43-13.22s.33-9,.47-13v-.94l.66.66,15.31,15.46,4.38,4.53A13.52,13.52,0,0,1,435,434.55Z" transform="translate(-3.41 -3)" style="fill:#e0e0e0"/><path d="M172.66,324.89a14.77,14.77,0,0,1-1.13,2l-3.3,5.33-11.77,18.3-.42-.63,12.85-2.23L182,345.44l.94-.17-.53.79L170.3,364l-3.54,5.15a13.76,13.76,0,0,1-1.35,1.79,12.07,12.07,0,0,1,1.12-1.94l3.3-5.28c3-4.58,7.09-10.85,11.81-18.17l.41.63-13,2.26-12.87,2.18-.92.15.51-.78c4.84-7.26,9-13.54,12-18.16l3.55-5.2A13.41,13.41,0,0,1,172.66,324.89Z" transform="translate(-3.41 -3)" style="fill:#e0e0e0"/><path d="M107.36,448.39a13.22,13.22,0,0,1,1.52,1.65l4,4.84,13.69,16.9-.73.19c.6-4,1.22-8.37,1.9-12.91s1.34-9,2-13.1l.13-.94.6.76,13.31,17,3.78,5a13.71,13.71,0,0,1,1.29,1.83,13.87,13.87,0,0,1-1.51-1.65l-4-4.82L129.9,446.28l.73-.18c-.6,4.07-1.24,8.5-1.92,13.09s-1.32,8.89-1.93,12.9l-.13.94-.6-.74-13.47-17.08-3.85-4.95A16.6,16.6,0,0,1,107.36,448.39Z" transform="translate(-3.41 -3)" style="fill:#e0e0e0"/><path d="M256.49,368.43a15.39,15.39,0,0,1-2.25.29l-6.27.55-21.71,1.65.27-.69,9.51,8.91,9.63,9.09.69.66h-1l-21.59,1.19-6.24.26a12.08,12.08,0,0,1-2.25,0,15.27,15.27,0,0,1,2.23-.28l6.23-.5,21.57-1.48-.25.69-9.66-9-9.48-9-.7-.66h.95l21.71-1.3,6.28-.32A14.45,14.45,0,0,1,256.49,368.43Z" transform="translate(-3.41 -3)" style="fill:#e0e0e0"/><path d="M219.89,451.66a18.57,18.57,0,0,1,1.55,1.65l4.11,4.76,14.06,16.61-.73.2c.51-4,1.08-8.39,1.65-12.93s1.18-9.05,1.66-13.13l.13-1,.59.75,13.68,16.76,3.88,4.95a16.87,16.87,0,0,1,1.32,1.82,14.13,14.13,0,0,1-1.54-1.65l-4.06-4.74-13.87-16.52L243,449c-.51,4.09-1.08,8.52-1.65,13.13s-1.16,8.92-1.66,13l-.13.94-.59-.73L225.17,458.5l-3.93-5A11.93,11.93,0,0,1,219.89,451.66Z" transform="translate(-3.41 -3)" style="fill:#e0e0e0"/><path d="M154.47,390.62a14,14,0,0,1-2.24.3l-6.26.53-21.7,1.65.25-.71,9.53,8.93,9.62,9.09.7.66h-1l-21.59,1.19-6.24.26a13.34,13.34,0,0,1-2.19,0,12.72,12.72,0,0,1,2.22-.28l6.23-.5,21.57-1.5-.25.71-9.66-9.05L124,393l-.67-.66h.94L146,391l6.27-.3A14.86,14.86,0,0,1,154.47,390.62Z" transform="translate(-3.41 -3)" style="fill:#e0e0e0"/><path d="M210.67,449.79a13,13,0,0,1-2.24.29l-6.28.54-21.7,1.65.27-.71,9.51,8.94,9.63,9.08.69.66h-.94L178,471.41l-6.24.28a12.08,12.08,0,0,1-2.25,0,13.87,13.87,0,0,1,2.23-.28l6.23-.49,21.56-1.51-.24.71-9.67-9.05-9.47-8.91-.7-.65h.94l21.72-1.32,6.29-.3A13.16,13.16,0,0,1,210.67,449.79Z" transform="translate(-3.41 -3)" style="fill:#e0e0e0"/><path d="M337.53,299.24a14.15,14.15,0,0,1-2.25.3l-6.28.53-21.68,1.65.25-.69,9.51,8.92,9.63,9.08.69.66h-.94l-21.6,1.19-6.24.26a12.08,12.08,0,0,1-2.25,0,13.87,13.87,0,0,1,2.23-.28l6.23-.49,21.58-1.49-.26.69-9.63-9-9.48-9-.69-.66h.94L329,299.61l6.3-.3A15.07,15.07,0,0,1,337.53,299.24Z" transform="translate(-3.41 -3)" style="fill:#e0e0e0"/><path d="M275.83,449.79s27.77-8,37-10.35c3.59-.91,18.93,7.18,29.53,13.92,0,0,14.6,8.66,13.43,11.31-1.31,2.94-6.61,2.35-15.28-1.65,0,0,3,8.71-2.89,8.51,0,0,2.92,9.41-2.59,10.39s-6.81-11-11.66-11.68-14.86-1.3-14.86-1.3-8.38,13.87-14.87,14.86-21.47-.78-21.47-.78Z" transform="translate(-3.41 -3)" style="fill:#ffbe9d"/><path d="M323.24,451.71a47,47,0,0,1,7.76,4.38,45.16,45.16,0,0,1,7.3,5.12A91.35,91.35,0,0,1,323.24,451.71Z" transform="translate(-3.41 -3)" style="fill:#eb996e"/><path d="M321.61,457.11a59,59,0,0,1,9.21,3.78,59.4,59.4,0,0,1,8.82,4.48,58.13,58.13,0,0,1-9.22-3.77A56.17,56.17,0,0,1,321.61,457.11Z" transform="translate(-3.41 -3)" style="fill:#eb996e"/><path d="M324.58,470A46.17,46.17,0,0,1,337,471.66,46.46,46.46,0,0,1,324.58,470Z" transform="translate(-3.41 -3)" style="fill:#eb996e"/><path d="M239.67,163.15a5.69,5.69,0,0,1-8,6.73c-3.76-1.9-4.24-7.1-3.5-11.24s2.15-8.59.41-12.44c-1.33-2.94-4.22-4.81-6.47-7.12A18.27,18.27,0,0,1,217,123.62a15.34,15.34,0,0,1,10.54-12.05c5.53-1.54,12.35.16,16.51-3.85,3-2.91,3.17-7.65,5.48-11.11,3.59-5.39,11.17-6.25,17.58-5.37S280,94.18,286.3,92.61c5.23-1.3,9.53-5,14.45-7.2a28.29,28.29,0,0,1,36.83,38.84,18.2,18.2,0,0,1-8.77,8.67" transform="translate(-3.41 -3)" style="fill:#263238"/><path d="M271.55,299.57h0a31.82,31.82,0,0,0,31.76-31.88v-.39L302.89,237s25.5-2.56,27.19-27.83.48-83.58.48-83.58h0a88.07,88.07,0,0,0-88.89,6.23l-3.89,2.69,1.89,133.67A31.82,31.82,0,0,0,271.55,299.57Z" transform="translate(-3.41 -3)" style="fill:#ffbe9d"/><path d="M323.88,171.4a3.78,3.78,0,0,1,0-7.51,1.3,1.3,0,0,1,.62,0,3.78,3.78,0,0,1,0,7.51A1.62,1.62,0,0,1,323.88,171.4Z" transform="translate(-3.41 -3)" style="fill:#263238"/><path d="M328.84,163.24c-.41.43-2.79-1.65-6.28-1.83s-6.11,1.45-6.45,1,.24-1,1.4-1.75a8.57,8.57,0,0,1,10.17.68C328.72,162.25,329.05,163.15,328.84,163.24Z" transform="translate(-3.41 -3)" style="fill:#263238"/><path d="M288.56,164.1a3.68,3.68,0,1,1-5.13.93h0A3.69,3.69,0,0,1,288.56,164.1Z" transform="translate(-3.41 -3)" style="fill:#263238"/><path d="M290.85,164.25c-.42.43-2.8-1.65-6.27-1.83s-6.11,1.45-6.48,1c-.18-.22.27-1,1.41-1.75a8.55,8.55,0,0,1,10.17.68C290.72,163.26,291.05,164.07,290.85,164.25Z" transform="translate(-3.41 -3)" style="fill:#263238"/><path d="M303.31,193.75c0-.27,2.16-.6,5.69-.89.91,0,1.66-.22,1.74-.7a5.23,5.23,0,0,0-.51-2.64l-2.38-7.23c-3.3-10.29-5.47-18.77-5-18.93s3.59,8,6.84,18.33c.76,2.51,1.5,5,2.21,7.27a5.8,5.8,0,0,1,.3,3.81,2.33,2.33,0,0,1-1.65,1.37,5.16,5.16,0,0,1-1.57.12C305.45,194.19,303.31,194,303.31,193.75Z" transform="translate(-3.41 -3)" style="fill:#263238"/><path d="M291.75,197a65,65,0,0,0,16.81,5.9,9.64,9.64,0,0,1-11.56,3.2C289.55,202.9,291.75,197,291.75,197Z" transform="translate(-3.41 -3)" style="fill:#fff"/><path d="M303,236.59a59,59,0,0,1-32.47-11.17s6.81,18.62,32.16,17.72Z" transform="translate(-3.41 -3)" style="fill:#eb996e"/><path d="M330.77,131.93s-15.28,7.76-35.51-1.85c-13.21-6.31-28.68-9.23-32-6.5s-3.78,16.26-16.73,20.47c0,0,1.41,25.87-8.93,25.14s-4.66-40.91-4.66-40.91l25-12.81,27.43-5.73,26,3.15,20.18,5.1Z" transform="translate(-3.41 -3)" style="fill:#263238"/><path d="M239.46,160.88c-.41-.21-17.09-6.09-17.47,11.23s17.07,14.14,17.11,13.64S239.46,160.88,239.46,160.88Z" transform="translate(-3.41 -3)" style="fill:#ffbe9d"/><path d="M233.94,179.07a5,5,0,0,1-.82.42,3,3,0,0,1-2.26,0c-1.82-.71-3.31-3.64-3.31-6.77a10.39,10.39,0,0,1,.94-4.31,3.53,3.53,0,0,1,2.33-2.26,1.66,1.66,0,0,1,1.77.88c.21.48.1.82.18.85s.38-.28.27-1a2,2,0,0,0-.66-1.1,2.3,2.3,0,0,0-1.66-.48,4.26,4.26,0,0,0-3.22,2.61,10.39,10.39,0,0,0-1.15,4.8c0,3.49,1.75,6.81,4.23,7.58a3.27,3.27,0,0,0,2.77-.39C233.94,179.49,233.94,179.1,233.94,179.07Z" transform="translate(-3.41 -3)" style="fill:#eb996e"/><path d="M230.64,106.66a9.53,9.53,0,0,1,10.7,4,26.73,26.73,0,0,0-5-3A28.09,28.09,0,0,0,230.64,106.66Z" transform="translate(-3.41 -3)" style="fill:#263238"/><path d="M241.06,96.29c.32,0-.16,3.65.43,8a34.64,34.64,0,0,0,2.43,7.55,7.21,7.21,0,0,1-1.45-1.9,16.17,16.17,0,0,1-1.82-5.52A18.08,18.08,0,0,1,241.06,96.29Z" transform="translate(-3.41 -3)" style="fill:#263238"/><path d="M312.22,154.89c-.09-.2.65-.81,2-1.37a15.65,15.65,0,0,1,11.56.11c1.39.6,2.13,1.21,2,1.41-.21.46-3.55-.85-7.82-.85S312.42,155.4,312.22,154.89Z" transform="translate(-3.41 -3)" style="fill:#263238"/><path d="M273.58,151.29c-.1-.2.64-.8,2.05-1.37a15.88,15.88,0,0,1,11.59.11c1.39.6,2.12,1.21,2,1.42s-3.55-.84-7.84-.86S273.81,151.75,273.58,151.29Z" transform="translate(-3.41 -3)" style="fill:#263238"/><path d="M309.24,157.66a5.91,5.91,0,0,1,0,1c0,.72,0,1.65.08,2.79s0,2.67.1,4.32a16,16,0,0,0,.82,5.62A14.67,14.67,0,0,0,320.71,181a13.71,13.71,0,0,0,4.23.36,13.28,13.28,0,0,0,4.31-.91,14.56,14.56,0,0,0,7.14-5.76,14.87,14.87,0,0,0,2.31-8.46v-8.52l.39.4-21.46-.2-6.23-.12h-2.26a16.79,16.79,0,0,1,2.13-.09l6.12-.12,21.7-.2h.55v8.94a15.57,15.57,0,0,1-2.43,8.91,15.34,15.34,0,0,1-7.56,6.1,14.39,14.39,0,0,1-4.58.94,14.75,14.75,0,0,1-4.44-.41,15.15,15.15,0,0,1-10.87-10.11,16.32,16.32,0,0,1-.72-5.85c0-1.65,0-3.18.08-4.44s0-2,.08-2.76A6.56,6.56,0,0,1,309.24,157.66Z" transform="translate(-3.41 -3)" style="fill:#263238"/><path d="M268.76,156.8v3.82c0,1.22,0,2.67.08,4.34a17,17,0,0,0,.83,5.62,15.13,15.13,0,0,0,3.65,5.76,14.64,14.64,0,0,0,22.49-2.54,14.88,14.88,0,0,0,2.33-8.46V156.8l.39.4-21.47-.2-6.21-.1h-2.26a16.63,16.63,0,0,1,2.12-.1l6.12-.1,21.7-.19h.4v8.93a15.71,15.71,0,0,1-2.44,8.92,15.41,15.41,0,0,1-7.55,6.08,15.48,15.48,0,0,1-9,.52,15.27,15.27,0,0,1-7.14-4,15.48,15.48,0,0,1-3.73-6.09,16.55,16.55,0,0,1-.73-5.85c0-1.65,0-3.19.1-4.44a24.88,24.88,0,0,0,0-2.76A3.37,3.37,0,0,1,268.76,156.8Z" transform="translate(-3.41 -3)" style="fill:#263238"/><path d="M309.6,158.87a38.21,38.21,0,0,1-11.4,0A36.32,36.32,0,0,1,309.6,158.87Z" transform="translate(-3.41 -3)" style="fill:#263238"/><path d="M237.25,159.08A148.56,148.56,0,0,1,253,158.6a151.47,151.47,0,0,1,15.8.38,138.68,138.68,0,0,1-15.79.48A141.16,141.16,0,0,1,237.25,159.08Z" transform="translate(-3.41 -3)" style="fill:#263238"/><path d="M407.14,470.74A40.64,40.64,0,0,0,445.78,492h0a40.62,40.62,0,0,0,37.34-34.5l9.58-109.64-38.36-9.48-15.68,85.88S430.47,460.23,407.14,470.74Z" transform="translate(-3.41 -3)" style="fill:#ffbe9d"/><path d="M454,346.31l1.27-19.24s5.43-43.17,5.43-47.4c0-4.85,2.33-6,4.13-5.91,2.79.18,4.78,3.64,5,7.81,0,1.44-.14,24.26-.14,24.26a54.38,54.38,0,0,1,4.41-6.16c3.31-4.27,11.3-6.72,19.44-6.45s10.37,1,10.42,4.21a4,4,0,0,1-1.65,3.07,8,8,0,0,1-5.37,1.85c-13-.23-16.51,6.72-16.51,6.72l-.17,2.53s7.92-5.67,14.22-3.31a7.42,7.42,0,0,1,2.51,1.56A10.19,10.19,0,0,1,505.78,325a4.22,4.22,0,0,1-4.1,2.56,5.24,5.24,0,0,1-2.29-1.4,9.77,9.77,0,0,0-1.17-.86l-1.46,7s-4.11,15.53-5.13,22.5" transform="translate(-3.41 -3)" style="fill:#ffbe9d"/><path d="M457.74,344.81c2.38.66,4.84-1.09,6.12-3.2s1.84-4.61,3-6.83c3.4-6.6,11.56-9.74,14.68-16.51.43-.94.66-2.23-.16-2.86s-1.85-.11-2.69.35l-21.47,11.89" transform="translate(-3.41 -3)" style="fill:#ffbe9d"/><path d="M457.16,327.62a10.66,10.66,0,0,1,2.2-1.52c1.45-.91,3.58-2.17,6.22-3.7l9.33-5.34,2.7-1.52a4.82,4.82,0,0,1,3.55-1,2,2,0,0,1,1.4,1.83,4.33,4.33,0,0,1-.35,2,15.29,15.29,0,0,1-1.85,3.11c-3,3.86-6.82,6.29-9.59,9.11a18.28,18.28,0,0,0-3.4,4.38c-.81,1.52-1.33,3.1-1.95,4.54a8.63,8.63,0,0,1-5,5.35c-1.76.53-2.76,0-2.69-.1a6.49,6.49,0,0,0,2.51-.41,8.39,8.39,0,0,0,4.26-5.22,49.84,49.84,0,0,1,1.83-4.71,19,19,0,0,1,3.52-4.74c2.84-3,6.61-5.46,9.38-9.05a13.75,13.75,0,0,0,1.65-2.79c.42-.94.35-1.88-.18-2a5,5,0,0,0-2.47.86l-2.75,1.49-9.46,5.15c-2.71,1.44-4.95,2.56-6.44,3.3A9.51,9.51,0,0,1,457.16,327.62Z" transform="translate(-3.41 -3)" style="fill:#eb996e"/><path d="M479.92,311.78a9.83,9.83,0,0,1,1.5-4.39,7.84,7.84,0,0,1,4-2.88,20.06,20.06,0,0,1,6.2-1A33.16,33.16,0,0,0,498,303a10.35,10.35,0,0,0,4.79-2.39,4.09,4.09,0,0,0,1.29-3.31,2.53,2.53,0,0,0-.43-1.25c-.09,0,0,.48.08,1.27a3.81,3.81,0,0,1-1.39,2.89,10.4,10.4,0,0,1-4.52,2.05,35.9,35.9,0,0,1-6.3.46,19.73,19.73,0,0,0-6.42,1,8.24,8.24,0,0,0-4.21,3.3,7.26,7.26,0,0,0-1.09,3.44A2.39,2.39,0,0,0,479.92,311.78Z" transform="translate(-3.41 -3)" style="fill:#eb996e"/><path d="M469.66,280a24.59,24.59,0,0,0,0,4.54c0,3.1,0,6.82.12,10.91s0,7.81,0,10.92a25.52,25.52,0,0,0,.1,4.54,19.14,19.14,0,0,0,.54-4.52c.2-2.8.33-6.61.31-10.94s-.18-8.16-.37-11A21.41,21.41,0,0,0,469.66,280Z" transform="translate(-3.41 -3)" style="fill:#eb996e"/><path d="M485.07,316.85a5.16,5.16,0,0,0,1.32-.51,4.24,4.24,0,0,1,3.5-.17,2.27,2.27,0,0,1,1.19,1.9,12.07,12.07,0,0,1-.21,2.94,4.94,4.94,0,0,0,.54,3.57,4.35,4.35,0,0,0,3.47,1.82,5,5,0,0,0,3.57-1.56,6,6,0,0,0,1.65-3.17,20.05,20.05,0,0,0-.08-5.84,11.48,11.48,0,0,0-1.18-3.75c-.46-.83-.89-1.14-.92-1.11s.26.45.61,1.26a13.36,13.36,0,0,1,.84,3.69,21.42,21.42,0,0,1-.08,5.6,5,5,0,0,1-4.43,4,3.43,3.43,0,0,1-2.75-1.41,4.32,4.32,0,0,1-.45-3,11.88,11.88,0,0,0,.13-3.15,2.94,2.94,0,0,0-1.65-2.37,4.38,4.38,0,0,0-3.93.43C485.43,316.49,485,316.73,485.07,316.85Z" transform="translate(-3.41 -3)" style="fill:#eb996e"/><path d="M498.07,324.15a1.8,1.8,0,0,0,.13,1.29,4,4,0,0,0,2.64,2.34,5.28,5.28,0,0,0,5-1.55,8.65,8.65,0,0,0,2.23-6,10.56,10.56,0,0,0-1.95-6.09,9.88,9.88,0,0,0-4.08-3.3,9.11,9.11,0,0,0-3.4-.81c-.83,0-1.28,0-1.28.13a15.37,15.37,0,0,1,4.41,1.26,9.71,9.71,0,0,1,3.67,3.15,10,10,0,0,1,1.65,5.62,8,8,0,0,1-1.91,5.41,4.65,4.65,0,0,1-4.27,1.51,3.74,3.74,0,0,1-2.46-1.87C498.18,324.61,498.18,324.15,498.07,324.15Z" transform="translate(-3.41 -3)" style="fill:#eb996e"/><path d="M482.38,339.41a3.53,3.53,0,0,0-2.18,0,8.7,8.7,0,0,0-4.76,2.87l.76.23a24.35,24.35,0,0,0-.49-3A19.52,19.52,0,0,0,471,330a49,49,0,0,1,3.83,9.72,29.84,29.84,0,0,1,.51,2.94l.13,1,.65-.81a8.94,8.94,0,0,1,4.21-2.89C481.57,339.56,482.38,339.52,482.38,339.41Z" transform="translate(-3.41 -3)" style="fill:#eb996e"/><path d="M482.79,300.58c-.21.1.66,1.65,2.68,2.6s3.79.39,3.71.16-1.65-.21-3.3-1S483,300.42,482.79,300.58Z" transform="translate(-3.41 -3)" style="fill:#eb996e"/><path d="M447.38,358.76l48.21,3.46s-7.42,85.3-8.85,98.52-9.91,33.18-39.36,33.18-34.93-10-48-30.67c15.44-10.7,40-42.65,40-42.65Z" transform="translate(-3.41 -3)" style="fill:#2d43c2"/><path d="M470.11,370.24a17.63,17.63,0,0,1-.89,2.1l-2.7,5.68L457,397.66l-.48-.58,12.5-3.72,12.7-3.73.93-.26-.45.84-9.91,19.24L469.38,415a12.08,12.08,0,0,1-1.14,1.93,17.78,17.78,0,0,1,.89-2.06c.7-1.42,1.65-3.3,2.71-5.63l9.6-19.37.48.57-12.69,3.77-12.52,3.67-.9.26.43-.84,9.85-19.44c1.21-2.3,2.18-4.18,2.91-5.58A13.23,13.23,0,0,1,470.11,370.24Z" transform="translate(-3.41 -3)" style="fill:#e0e0e0"/><path d="M465.55,452.29a14.15,14.15,0,0,1-2.25.3l-6.27.54-21.7,1.65.26-.71L445.1,463l9.63,9.08.7.66h-1l-21.59,1.19-6.24.27a14.08,14.08,0,0,1-2.25,0,14,14,0,0,1,2.23-.27l6.23-.51,21.57-1.49-.25.71-9.66-9.06L435,454.62l-.69-.65h.94l21.71-1.3,6.3-.32A14.19,14.19,0,0,1,465.55,452.29Z" transform="translate(-3.41 -3)" style="fill:#e0e0e0"/></g><g id="freepik--Shield--inject-2"><path d="M551.38,147.57l-49.17-17.65-48.62,17.42c-6.21,2.92-11.66,4.69-11.66,10.47v28.84a109.1,109.1,0,0,0,16,57.42,100,100,0,0,0,44.79,39.55c19.82-6.46,34.68-23.7,43.85-38.43a109,109,0,0,0,16.05-57.42V161.84C562.59,153.58,558.2,149.55,551.38,147.57Z" transform="translate(-3.41 -3)" style="fill:#2d43c2"/><g style="opacity:0.30000001192092896"><path d="M502.69,266.84a79.25,79.25,0,0,1-35.42-31.54,86.18,86.18,0,0,1-12.7-45.4V169.75c0-4.59,2.77-8.88,8.25-11.44l39.41-14.74V130l-48.64,17.36c-5.1,2.23-11.66,4.69-11.66,10.47v28.84a109.1,109.1,0,0,0,16,57.42,100,100,0,0,0,44.79,39.55Z" transform="translate(-3.41 -3)"/></g><g style="opacity:0.4000000059604645"><path d="M502.69,283.57a59.23,59.23,0,0,0,9.66-4.13,86.88,86.88,0,0,0,20.51-16.08,109.65,109.65,0,0,0,14.22-19.11,104.85,104.85,0,0,0,15.51-58v-23.8c0-11.86-6.11-12.74-11.23-15L502.2,129.85v13.59l39.86,15c5.49,2.56,8.26,6.86,8.26,11.43v20.23a86.11,86.11,0,0,1-12.7,45.38,77.59,77.59,0,0,1-35,31.38Z" transform="translate(-3.41 -3)"/></g><path d="M515.26,188.61v-3.9a12.77,12.77,0,0,0-25.53,0v4a7.13,7.13,0,0,0-6.08,7v23a7.13,7.13,0,0,0,7.13,7.14H514.7a7.13,7.13,0,0,0,7.13-7.14h0v-23A7.12,7.12,0,0,0,515.26,188.61ZM506,213h-6.24l1-4.5a3.78,3.78,0,1,1,5.24-1.11,3.91,3.91,0,0,1-1.11,1.11C505.25,210.13,506,213,506,213Zm6.61-24.37H492.49v-3.87a10,10,0,0,1,20,0Z" transform="translate(-3.41 -3)" style="fill:#fff;opacity:0.5;isolation:isolate"/><path d="M462.54,188.33a14.72,14.72,0,0,1-.74-4,68.11,68.11,0,0,1-.4-9.79c0-1.92.19-3.73.35-5.38a11.51,11.51,0,0,1,1.11-4.35,4.81,4.81,0,0,1,2.14-2.16c.68-.31,1.09-.3,1.09-.25a5.52,5.52,0,0,0-2.69,2.68,12,12,0,0,0-.86,4.14c-.13,1.65-.23,3.45-.28,5.35-.11,3.79,0,7.22.15,9.71A24.93,24.93,0,0,1,462.54,188.33Z" transform="translate(-3.41 -3)" style="fill:#fff"/><path d="M463.25,200.87c-.23,0-.44-1.18-.48-2.65s.15-2.66.38-2.66.45,1.18.48,2.65S463.5,200.87,463.25,200.87Z" transform="translate(-3.41 -3)" style="fill:#fff"/></g><g id="freepik--Device--inject-2"><polygon points="411.08 348.8 356.27 484.35 257.42 484.35 257.42 490.48 551.84 490.48 612.07 348.8 411.08 348.8" style="fill:#263238"/><path d="M498.28,431.83c-2,6.82-7.76,11.13-12.91,9.64s-7.72-8.26-5.73-15.08,7.78-11.13,12.93-9.64S500.28,425,498.28,431.83Z" transform="translate(-3.41 -3)" style="fill:#fafafa"/></g></svg>