<svg id="Layer_1" data-name="Layer 1" xmlns="http://www.w3.org/2000/svg" viewBox="0 0 329.82 302.96"><title>login</title><g id="Page-1"><g id="_02" data-name="02"><g id="Group-261"><g id="Group-3"><path id="Fill-1" d="M83.8,282.6C43.4,269,8.3,235.2,1.2,193.3s19.3-89.2,61-98.2c19.7-4.3,40.9-.5,59.8-7.7,35.5-13.6,47.5-59.6,80.3-78.8,31.6-18.5,74.9-5.2,98.4,22.8s30.4,66.6,29,103.1c-2.1,53.6-25,111.5-73.7,134.1-41.3,19.2-128.1,24.6-172.2,14" transform="translate(-0.05 -0.05)" style="fill:#bad8ff"/></g><path id="Fill-4" d="M35,273.3c8.9,14.7,27.2,20.3,43.9,19.9s33-5.3,49.7-6.3C155,285.3,181,293.7,207,299s54.4,7.2,77.6-6.2c5.7-3.3,11.2-7.7,13.5-14s.2-14.7-5.8-17.3a18.51,18.51,0,0,0-7.4-1.1q-83.55-1.65-167.1-3.2c-28.3-.5-59.6,0-80.9,19.5" transform="translate(-0.05 -0.05)" style="fill:#77a3d9"/><g id="Group-132"><path id="Fill-6" d="M274.9,107.2c-3.4,3.3-4.7,8.4-1.5,12.3a9.6,9.6,0,0,0,12.9,1.5c9.3-7.1-.4-20.3-10.4-17.5a1.63,1.63,0,0,0,.4,3.2c2.9.2,6.1.3,8.4,2.3a6,6,0,0,1,.5,8.4c-5.5,6.7-14.9-3.2-9.2-9.1.8-.7-.3-1.8-1.1-1.1" transform="translate(-0.05 -0.05)" style="fill:#3a3a3a;fill-opacity:0.5"/><path id="Fill-8" d="M51.7,74.9a11.51,11.51,0,0,0-10.8.9A11.25,11.25,0,0,0,36,85.4c.1,2.9,1.3,6.3-.6,8.5-1.5,1.8-4,1.9-6.1,2.9a8.49,8.49,0,0,0-4.1,10.9c1,2.1,2.9,4.1,2.5,6.4a4.88,4.88,0,0,1-2.7,3.4,31.22,31.22,0,0,1-4.2,1.8c-5,2.4-8,8.1-7.9,13.6s3.2,10.7,7.6,14.1A27,27,0,0,0,36,152.2c5.6.2,11.4-1.1,15.6-4.7a24.8,24.8,0,0,0,6.8-10.3A50.91,50.91,0,0,0,61.8,114c-.8-8-3.4-15.9-4-24.1a56.91,56.91,0,0,0-.8-8.2A10.3,10.3,0,0,0,52.7,75" transform="translate(-0.05 -0.05)" style="fill:#3a3a3a"/><path id="Fill-10" d="M50.4,75.9a24.38,24.38,0,0,1,16.5-13,18.21,18.21,0,0,1,13,1.6c3.8,2.3,6.5,6.7,5.9,11.2-.4,2.7-1.8,5.2-2.8,7.7s-1.3,5.7.5,7.9c1.6,1.9,4.3,2.4,6.4,3.6a9.48,9.48,0,0,1-1,17,11.83,11.83,0,0,1,8.1,4.8,11.56,11.56,0,0,1,1.8,9.2c-1.1,4.5-4.8,8-8.7,10.4a37.41,37.41,0,0,1-18.4,5.6c-6.9.3-14.5-1.7-18.2-7.5-2.5-3.8-2.8-8.5-3.1-13-.8-13.5-1.4-27.1-2-40.6a23.48,23.48,0,0,1,.3-6.5" transform="translate(-0.05 -0.05)" style="fill:#3a3a3a"/><path id="Fill-12" d="M73.5,137.1l61.6,23-5.9-24.7,16-4.1s17.2,48.4,5.3,49.7c-21,2.3-52.7-6-52.7-6Z" transform="translate(-0.05 -0.05)" style="fill:#3a3a3a;fill-opacity:0.5"/><path id="Fill-14" d="M68.1,242.6s74.4-80.8,124.7-63.2,71.5,99.9,71.5,99.9l-40-.6s-31.6-62.1-47-59.7-63.1,61.6-63.1,61.6Z" transform="translate(-0.05 -0.05)" style="fill:#3a3a3a;fill-opacity:0.5"/><path id="Fill-16" d="M91.7,193.6,94.8,241c-16,19.6-71.9-5.7-71.9-5.7l-.7-19.8-1.3-47.2c1.3-18.8,18.8-28,18.8-28,7.3-3.6,18.3-5.6,28.3-5.1,10.4.5,13,5.5,17.3,14.9,3.5,7.5,12.9,19.9,6.4,43.5" transform="translate(-0.05 -0.05)" style="fill:#3a3a3a;fill-opacity:0.5"/><path id="Fill-18" d="M33.3,244.2s-8.5,34.6,17.5,40,121.8-7.3,146.8-5.1,95.9,6.3,95.9,6.3l5.2-41.1s-110.4-5.3-122.9-2.2-142.5,2.1-142.5,2.1" transform="translate(-0.05 -0.05)" style="fill:#3a3a3a;fill-opacity:0.5"/><path id="Fill-20" d="M45.8,183.7S38,229.5,49,228.3c36.2-3.7,57.8-4.2,57.8-4.2l6,12.4c.1,2.1-68.6,21.7-79.6,15.2-7.8-4.6-20.2-16.9-14.6-53.6l1.3-12.3Z" transform="translate(-0.05 -0.05)" style="fill:#3a3a3a"/><polygon id="Fill-22" points="78.45 249.35 78.35 246.25 123.85 239.95 135.85 197.95 186.25 196.75 172.65 242.15 78.45 249.35" style="fill:#3a3a3a;fill-opacity:0.5"/><path id="Fill-24" d="M160.2,217.9a3.76,3.76,0,0,1-3.6,3.8,3.7,3.7,0,0,1-3.8-3.6,3.76,3.76,0,0,1,3.6-3.8,3.63,3.63,0,0,1,3.8,3.6" transform="translate(-0.05 -0.05)" style="fill:#3a3a3a"/><path id="Fill-26" d="M161.7,217.8a5.16,5.16,0,0,1-5.1,5.3,5.1,5.1,0,0,1-5.3-5.1,5.16,5.16,0,0,1,5.1-5.3,5.37,5.37,0,0,1,5.3,5.1" transform="translate(-0.05 -0.05)" style="fill:#3a3a3a"/><path id="Fill-28" d="M25.9,153.4s-8.4,8.1-10.3,38.6l32.7-3.6c-.1,0,5.4-52-22.4-35" transform="translate(-0.05 -0.05)" style="fill:#3a3a3a"/><path id="Fill-30" d="M265.9,61.6s11.6,25.9,14.8,24.5,33.2-19.8,33.2-19.8-12.3-23.2-14.8-24.5-33.2,19.8-33.2,19.8" transform="translate(-0.05 -0.05)" style="fill:#3a3a3a;fill-opacity:0.5"/><path id="Fill-32" d="M299.1,41.8a53.13,53.13,0,0,1-2.2,7c-1.5,4.2-3.6,10.1-6.1,16.5-.1.2-.1.3-.2.5l-.2.4L290,66c-6.7-1.1-12.7-2.1-17.1-2.9a56.38,56.38,0,0,1-7-1.5c0-.2,2.7.1,7.1.8s10.4,1.5,17.2,2.6l-.6.4c.1-.1.1-.3.2-.5,2.4-6.4,4.7-12.2,6.4-16.4s2.7-6.8,2.9-6.7" transform="translate(-0.05 -0.05)" style="fill:#3a3a3a"/><path id="Fill-34" d="M276.9,83.1c-.3-.1.6-4.3,2-9.5s2.8-9.3,3.1-9.2-.6,4.3-2,9.5-2.8,9.2-3.1,9.2" transform="translate(-0.05 -0.05)" style="fill:#3a3a3a"/><path id="Fill-36" d="M311.9,61.1c0,.3-4.2-.1-9.3-.9s-9.2-1.7-9.2-2,4.2.1,9.3.9,9.3,1.7,9.2,2" transform="translate(-0.05 -0.05)" style="fill:#3a3a3a"/><path id="Fill-38" d="M42.3,89.4l.7,9.7s-8.3,1.1-5.9,8.6,8,4.2,8,4.2,1.4,19.3,21.3,13.2c15.8-4.9,14.8-25.2,12.8-42.5a11.65,11.65,0,0,0-13.8-10L53.5,74.9A13.56,13.56,0,0,0,42.3,89.4" transform="translate(-0.05 -0.05)" style="fill:#3a3a3a"/><path id="Fill-40" d="M43,107.1l5.3,28.3a11.44,11.44,0,0,0,13.9,9,11.29,11.29,0,0,0,8.6-13l-2.9-16.2Z" transform="translate(-0.05 -0.05)" style="fill:#3a3a3a"/><path id="Fill-42" d="M64.9,107.4c.1-.1.2.3.6.3s.9-.3,1-1.1a9.35,9.35,0,0,0,0-2.9c-.1-1.2-.2-2.5-.3-3.8-.3-5.4-.4-9.7,0-9.7s.8,4.3,1.2,9.7c.1,1.3.1,2.5.2,3.8a11,11,0,0,1-.2,3.2c-.3,1-1.3,1.6-1.9,1.3s-.6-.8-.6-.8" transform="translate(-0.05 -0.05)" style="fill:#3a3a3a"/><path id="Fill-44" d="M71.4,123.1c.1.1-.7,1-2.3,1.9a15.79,15.79,0,0,1-7,1.9,14.08,14.08,0,0,1-7.1-1.6c-1.7-.9-2.5-1.7-2.4-1.8.1-.3,4,2.4,9.5,2.3s9.1-3,9.3-2.7" transform="translate(-0.05 -0.05)" style="fill:#3a3a3a"/><path id="Fill-46" d="M67.5,111.4c.1.1-.1.7-1,1.3a4.69,4.69,0,0,1-4,.6,4.48,4.48,0,0,1-2.9-2.8c-.4-1-.2-1.7-.1-1.7s.3.6.8,1.3a4.7,4.7,0,0,0,2.6,2.1,5.14,5.14,0,0,0,3.3-.2c.7-.3,1.2-.7,1.3-.6" transform="translate(-0.05 -0.05)" style="fill:#3a3a3a"/><path id="Fill-48" d="M42.4,108.6c0,.1-.5.4-1.3.1a1.84,1.84,0,0,1-1.2-1.1,2,2,0,0,1-.1-1.1,1.35,1.35,0,0,1,.9-.9,1.42,1.42,0,0,1,1.7.5l-1,.5c-.6-1.6-.9-2.8-.7-2.9s.9.9,1.7,2.5l-1,.5a.48.48,0,0,0-.4,0,.45.45,0,0,0-.2.6,1.28,1.28,0,0,0,.5.7c.6.4,1.1.5,1.1.6" transform="translate(-0.05 -0.05)" style="fill:#3a3a3a"/><path id="Fill-50" d="M72.9,95c-.3.1-.7-.6-.9-1.4s-.1-1.6.2-1.7.7.6.9,1.4.1,1.7-.2,1.7" transform="translate(-0.05 -0.05)" style="fill:#3a3a3a"/><path id="Fill-52" d="M56.1,96.6c-.3.1-.7-.5-1-1.4s-.2-1.6.1-1.7.7.5,1,1.4.2,1.6-.1,1.7" transform="translate(-0.05 -0.05)" style="fill:#3a3a3a"/><path id="Fill-54" d="M57.6,89.5c-.1.3-1,.3-2,.6s-1.8.7-2,.5.4-1.2,1.7-1.6,2.5.3,2.3.5" transform="translate(-0.05 -0.05)" style="fill:#3a3a3a"/><path id="Fill-56" d="M74.8,86.8c-.1.3-1.1.1-2.3.3s-2.1.4-2.3.1.8-1.1,2.2-1.2,2.5.6,2.4.8" transform="translate(-0.05 -0.05)" style="fill:#3a3a3a"/><path id="Fill-58" d="M43,99.1c5.5-5.4,7.2-14.3,8.7-21.9a19.47,19.47,0,0,0,18.1,2.3,28.32,28.32,0,0,0,6.4,5.6,2.81,2.81,0,0,0,2.3.6c.9-.3,1.3-1.3,1.6-2.3a16.55,16.55,0,0,0-.3-9.1,11.22,11.22,0,0,0-6.2-6.6c-3.1-1.2-6.6-.7-9.8.2A53.63,53.63,0,0,0,50,73.6c-4.2,2.5-8.3,5.7-10.1,10.3S38,97.3,42.4,99.6" transform="translate(-0.05 -0.05)" style="fill:#3a3a3a"/><path id="Fill-60" d="M65.6,112.5a2.25,2.25,0,0,1-2.8,2.6,2.32,2.32,0,0,1-1.5-3.6c.9-1.3,2-2.1,2.7-2a4.36,4.36,0,0,1,1.6,3" transform="translate(-0.05 -0.05)" style="fill:#3a3a3a"/><path id="Fill-62" d="M58.7,103.5c.3,1.5-1.6,3.1-4.3,3.3s-4.7-1.3-4.6-2.9,2.1-2.7,4.3-2.8,4.3.8,4.6,2.4" transform="translate(-0.05 -0.05)" style="fill:#3a3a3a"/><path id="Fill-64" d="M79.7,101.8c.3,1.5-1.4,3.1-3.8,3.3s-4.2-1.3-4.1-2.9,1.8-2.7,3.8-2.8,3.8.8,4.1,2.4" transform="translate(-0.05 -0.05)" style="fill:#3a3a3a"/><path id="Fill-66" d="M42.8,124.7c-.3,0-.5-3.1-.7-6.9s-.3-6.9,0-7,1,3,1.2,6.9-.2,7-.5,7" transform="translate(-0.05 -0.05)" style="fill:#3a3a3a"/><path id="Fill-68" d="M75.7,136.8c-5.4-2.1,35.9,13.2,35.9,13.2l-4.2,28-15.7-5.1Z" transform="translate(-0.05 -0.05)" style="fill:#3a3a3a;fill-opacity:0.5"/><path id="Fill-70" d="M51.1,73.4a8.29,8.29,0,0,0,1.1-6.7c-.5-1.9-1.9-3.7-3.8-3.8a4.23,4.23,0,0,0-3,1.2,6.24,6.24,0,0,0-1.2,7.4,6.32,6.32,0,0,0,7,2.9" transform="translate(-0.05 -0.05)" style="fill:#3a3a3a"/><path id="Fill-72" d="M297.5,253s13.4-19.1,11.8-11.9S294,280.5,294,280.5Z" transform="translate(-0.05 -0.05)" style="fill:#3a3a3a;fill-opacity:0.5"/><path id="Fill-74" d="M103,224.1s17.7-5.5,17.1-3.7-3.6,1.9-6.6,4.8c0,0,19.8.2,18.9,1.8s-13.9,2-13.9,2.3,14.1.6,13.8,2.1-13.5,1.1-13.5,1.1,12.2,1.3,12,2.9-11.5.5-11.5.5,9.4,1.1,9.2,2.5c-.1.9-27.6,1.1-27.7,1.8-.2.4,2.2-16.1,2.2-16.1" transform="translate(-0.05 -0.05)" style="fill:#3a3a3a"/><path id="Fill-76" d="M130.4,136.8s-10.8-15-8.8-15,2.9,2.8,6.6,4.8c0,0-5.9-18.7-4.1-18.3s6.2,12.4,6.5,12.4-3.8-13.5-2.3-13.6,5.3,12.3,5.3,12.3-2.6-11.9-.9-12.2,4,10.7,4,10.7-1.9-9.2-.4-9.4c.9-.1,9,22.7,9,22.7-.2,0-14.9,5.6-14.9,5.6" transform="translate(-0.05 -0.05)" style="fill:#3a3a3a;fill-opacity:0.5"/><path id="Fill-78" d="M31.2,178c.1,0,.5.7.5,2.1a2.79,2.79,0,0,1-1.2,2.3,2.29,2.29,0,0,1-1.7.4,3.77,3.77,0,0,1-1.5-.9c-.7-.8-1.2-1.3-1.9-1.4a2,2,0,0,0-1.7.5c-.8.8-.8,1.6-1,1.6s-.5-.9.4-2.2a2.84,2.84,0,0,1,2.4-1,2.2,2.2,0,0,1,1.5.6,5.73,5.73,0,0,1,1.1,1.1c1.1,1.5,2.6,0,2.7-1.1.3-1.1.2-2,.4-2" transform="translate(-0.05 -0.05)" style="fill:#3a3a3a"/><path id="Fill-80" d="M40.8,169.7c-.1-.1.3-.8,1.5-1.6a2.87,2.87,0,0,1,2.6-.2,2,2,0,0,1,1.2,1.2,3.26,3.26,0,0,1,0,1.7c-.3,1-.5,1.7-.2,2.3a2.5,2.5,0,0,0,1.3,1.2c1.1.3,1.8-.2,1.9,0s-.5,1-2.1.8a3,3,0,0,1-2.1-1.5,2.88,2.88,0,0,1-.3-1.6,6.58,6.58,0,0,1,.4-1.5c.7-1.8-1.3-2.2-2.3-1.7s-1.8,1-1.9.9" transform="translate(-0.05 -0.05)" style="fill:#3a3a3a"/><path id="Fill-82" d="M40.2,149c-.1-.1.3-.8,1.5-1.6a2.87,2.87,0,0,1,2.6-.2,2,2,0,0,1,1.2,1.2,3.26,3.26,0,0,1,0,1.7c-.3,1-.5,1.7-.2,2.3a2.5,2.5,0,0,0,1.3,1.2c1.1.3,1.8-.2,1.9,0s-.5,1-2.1.8a3,3,0,0,1-2.1-1.5,2.88,2.88,0,0,1-.3-1.6,6.58,6.58,0,0,1,.4-1.5c.7-1.8-1.3-2.2-2.3-1.7s-1.8,1-1.9.9" transform="translate(-0.05 -0.05)" style="fill:#3a3a3a"/><path id="Fill-84" d="M60.8,176c-.1.1-.8-.3-1.7-1.4a2.65,2.65,0,0,1-.4-2.5,2.3,2.3,0,0,1,1.1-1.3,2.52,2.52,0,0,1,1.7-.1c1,.2,1.7.4,2.3,0a2.13,2.13,0,0,0,1.1-1.4,5.12,5.12,0,0,0-.2-1.9c.1-.1,1,.4,1,2a2.76,2.76,0,0,1-1.4,2.2,2.73,2.73,0,0,1-1.6.4,6.05,6.05,0,0,1-1.5-.2c-1.8-.6-2.1,1.5-1.5,2.4s1.3,1.6,1.1,1.8" transform="translate(-0.05 -0.05)" style="fill:#3a3a3a"/><path id="Fill-86" d="M74.9,197.6c.1.1-.4.8-1.6,1.4a2.93,2.93,0,0,1-2.6,0,1.82,1.82,0,0,1-1.1-1.3,2.46,2.46,0,0,1,.2-1.7,3.42,3.42,0,0,0,.4-2.3,2,2,0,0,0-1.2-1.3,4.17,4.17,0,0,0-1.9-.1c-.1-.1.6-.9,2.1-.6a2.75,2.75,0,0,1,2,1.7,2.85,2.85,0,0,1,.2,1.6,5.78,5.78,0,0,1-.5,1.4c-.9,1.7,1.2,2.3,2.2,1.9s1.7-.9,1.8-.7" transform="translate(-0.05 -0.05)" style="fill:#3a3a3a"/><path id="Fill-88" d="M91.5,163.5c.1.1-.4.8-1.6,1.4a2.93,2.93,0,0,1-2.6,0,1.82,1.82,0,0,1-1.1-1.3,2.39,2.39,0,0,1,.2-1.7,3.42,3.42,0,0,0,.4-2.3,2,2,0,0,0-1.2-1.3,4.17,4.17,0,0,0-1.9-.1c-.1-.1.6-.9,2.1-.6a2.75,2.75,0,0,1,2,1.7,2.85,2.85,0,0,1,.2,1.6,5.78,5.78,0,0,1-.5,1.4c-.9,1.7,1.2,2.3,2.2,1.9s1.7-.9,1.8-.7" transform="translate(-0.05 -0.05)" style="fill:#3a3a3a"/><path id="Fill-90" d="M102.8,158.3c.1-.1.9.1,1.9,1a3.09,3.09,0,0,1,.9,2.4,2.2,2.2,0,0,1-.9,1.5,2.68,2.68,0,0,1-1.7.4,3.81,3.81,0,0,0-2.3.4,2.09,2.09,0,0,0-.8,1.6c0,1.1.7,1.7.5,1.8,0,.1-1.1-.2-1.3-1.8a3,3,0,0,1,.9-2.4,3.48,3.48,0,0,1,1.5-.7,7.44,7.44,0,0,1,1.5,0c1.9.2,1.8-1.9,1.1-2.7s-1.4-1.4-1.3-1.5" transform="translate(-0.05 -0.05)" style="fill:#3a3a3a"/><path id="Fill-92" d="M57,215.3c.1.1-.4.8-1.6,1.4a2.93,2.93,0,0,1-2.6,0,1.82,1.82,0,0,1-1.1-1.3,2.46,2.46,0,0,1,.2-1.7,3.42,3.42,0,0,0,.4-2.3,2,2,0,0,0-1.2-1.3,4.17,4.17,0,0,0-1.9-.1c-.1-.1.6-.9,2.1-.6a2.75,2.75,0,0,1,2,1.7,2.85,2.85,0,0,1,.2,1.6,5.78,5.78,0,0,1-.5,1.4c-.9,1.7,1.2,2.3,2.2,1.9s1.8-.9,1.8-.7" transform="translate(-0.05 -0.05)" style="fill:#3a3a3a"/><path id="Fill-94" d="M81.6,182.4c-.1.1-.8-.4-1.5-1.6a2.89,2.89,0,0,1-.1-2.6,2,2,0,0,1,1.3-1.2,2.42,2.42,0,0,1,1.7.1c1,.4,1.6.6,2.3.3a1.73,1.73,0,0,0,1.2-1.3,5.13,5.13,0,0,0,0-1.9c.1-.1.9.5.7,2.1a2.78,2.78,0,0,1-3.2,2.2c-.6-.1-1-.3-1.5-.4-1.7-.8-2.3,1.2-1.8,2.2a17.84,17.84,0,0,1,.9,2.1" transform="translate(-0.05 -0.05)" style="fill:#3a3a3a"/><path id="Fill-96" d="M86,200.1c-.1.1-.8-.4-1.5-1.6a2.89,2.89,0,0,1-.1-2.6,2,2,0,0,1,1.3-1.2,2.42,2.42,0,0,1,1.7.1c1,.4,1.7.6,2.3.3a1.6,1.6,0,0,0,1.2-1.3,5.13,5.13,0,0,0,0-1.9c.1-.1.9.5.7,2.1a2.78,2.78,0,0,1-3.2,2.2c-.6-.1-1-.3-1.5-.4-1.7-.8-2.3,1.2-1.8,2.2a17.84,17.84,0,0,1,.9,2.1" transform="translate(-0.05 -0.05)" style="fill:#3a3a3a"/><path id="Fill-98" d="M50.5,192.5c-.1,0-.4-.8-.1-2.2a2.83,2.83,0,0,1,1.6-2,2,2,0,0,1,1.7,0,2.76,2.76,0,0,1,1.2,1.2c.5.9.8,1.5,1.5,1.8a1.9,1.9,0,0,0,1.8-.1,4.08,4.08,0,0,0,1.3-1.4c.1,0,.3,1-.9,2a2.85,2.85,0,0,1-2.6.4,2.38,2.38,0,0,1-1.3-.9,4.58,4.58,0,0,1-.8-1.3c-.8-1.7-2.5-.6-2.9.5s-.3,2.1-.5,2" transform="translate(-0.05 -0.05)" style="fill:#3a3a3a"/><path id="Fill-100" d="M82.5,214.3c-.1,0-.4-.8-.1-2.2a2.83,2.83,0,0,1,1.6-2,2,2,0,0,1,1.7,0,2.76,2.76,0,0,1,1.2,1.2c.5.9.8,1.5,1.5,1.8a1.9,1.9,0,0,0,1.8-.1,4.08,4.08,0,0,0,1.3-1.4c.1,0,.3,1-.9,2a2.85,2.85,0,0,1-2.6.4,2.38,2.38,0,0,1-1.3-.9,4.58,4.58,0,0,1-.8-1.3c-.8-1.7-2.5-.6-2.9.5-.2,1.2-.3,2.1-.5,2" transform="translate(-0.05 -0.05)" style="fill:#3a3a3a"/><path id="Fill-102" d="M81.6,148.3c-.1,0-.4-.8-.1-2.2a2.83,2.83,0,0,1,1.6-2,2,2,0,0,1,1.7,0,2.76,2.76,0,0,1,1.2,1.2c.5.9.8,1.5,1.5,1.8a1.9,1.9,0,0,0,1.8-.1,4.08,4.08,0,0,0,1.3-1.4c.1,0,.3,1-.9,2a2.85,2.85,0,0,1-2.6.4,2.38,2.38,0,0,1-1.3-.9,4.58,4.58,0,0,1-.8-1.3c-.8-1.7-2.5-.6-2.9.5-.2,1.2-.3,2-.5,2" transform="translate(-0.05 -0.05)" style="fill:#3a3a3a"/><path id="Fill-104" d="M71.1,223.1c-.1.1-.9,0-2-.8a2.76,2.76,0,0,1-1.2-2.3,2.13,2.13,0,0,1,.7-1.6,2.66,2.66,0,0,1,1.6-.6,3.2,3.2,0,0,0,2.2-.7,1.92,1.92,0,0,0,.6-1.7c-.1-1.1-.9-1.6-.8-1.7s1.1.1,1.5,1.6a2.73,2.73,0,0,1-.6,2.5,3,3,0,0,1-1.3.9,4.14,4.14,0,0,1-1.5.2c-1.9,0-1.6,2.1-.7,2.8s1.6,1.2,1.5,1.4" transform="translate(-0.05 -0.05)" style="fill:#3a3a3a"/><path id="Fill-106" d="M33.1,158.3c.1-.1.8.4,1.4,1.7a3,3,0,0,1-.1,2.6,1.87,1.87,0,0,1-1.4,1,3.06,3.06,0,0,1-1.7-.3,3,3,0,0,0-2.3-.5,2.27,2.27,0,0,0-1.4,1.1,3.54,3.54,0,0,0-.2,1.9c-.1.1-.9-.6-.5-2.1a3,3,0,0,1,1.8-1.9,2.92,2.92,0,0,1,1.6-.1c.5.1,1,.4,1.4.5,1.7.9,2.4-1,2-2.1s-.8-1.7-.6-1.8" transform="translate(-0.05 -0.05)" style="fill:#3a3a3a"/><path id="Fill-108" d="M69.8,151.7c.1-.1.8.4,1.4,1.7a3,3,0,0,1-.1,2.6,1.87,1.87,0,0,1-1.4,1,3.06,3.06,0,0,1-1.7-.3,3,3,0,0,0-2.3-.5,2.27,2.27,0,0,0-1.4,1.1,3.54,3.54,0,0,0-.2,1.9c-.1.1-.9-.6-.5-2.1a3,3,0,0,1,1.8-1.9,2.92,2.92,0,0,1,1.6-.1c.5.1,1,.4,1.4.5,1.7.9,2.4-1,2-2.1-.3-.9-.8-1.7-.6-1.8" transform="translate(-0.05 -0.05)" style="fill:#3a3a3a"/><path id="Fill-110" d="M47.2,190.1a6.29,6.29,0,0,1,0-2.2c.1-1.4.3-3.5.5-6,.5-5.1,1.2-12.1,2-19.9a20.25,20.25,0,0,0,0-5.5,9.42,9.42,0,0,0-1.9-4.6,12.81,12.81,0,0,0-7.3-4.5,19.25,19.25,0,0,0-6-.5,19.68,19.68,0,0,0-2.2.1,6.34,6.34,0,0,1,2.2-.5,19.11,19.11,0,0,1,6.2.2,13.08,13.08,0,0,1,7.9,4.6,11.2,11.2,0,0,1,2.2,5.1,22.52,22.52,0,0,1,0,5.8c-.8,7.8-1.7,14.8-2.4,19.9-.3,2.5-.6,4.6-.8,6s-.3,2.1-.4,2" transform="translate(-0.05 -0.05)" style="fill:#3a3a3a"/><path id="Fill-112" d="M48.6,188.4c0,.3-7.4,1.3-16.6,2.3s-16.7,1.5-16.8,1.2,7.4-1.3,16.6-2.3,16.8-1.5,16.8-1.2" transform="translate(-0.05 -0.05)" style="fill:#3a3a3a"/><path id="Fill-114" d="M94.1,184.7c-.4,0,1.4-6.6-.6-14.4s-6.7-12.7-6.3-12.9c.1-.1,1.4,1,3,3.1a28,28,0,0,1,5,20,12.63,12.63,0,0,1-1.1,4.2" transform="translate(-0.05 -0.05)" style="fill:#3a3a3a;fill-opacity:0.5"/><path id="Fill-116" d="M181.3,185.2c.3-1.9.2-3.6,1.3-5.3,2.1-3.3,5.1-2.5,7.9-1s5.7,2.3,8.8,1c5-2.2,7.2-9.5,2.6-13.1-1.5-1.2-3.1.7-2.8,2.2.3,2,1.3,4.2-.4,5.9-2.3,2.3-5,.4-7.3-.7a9.4,9.4,0,0,0-7.7-.3c-4.4,1.8-7.6,7.7-4.1,11.7a1,1,0,0,0,1.7-.4" transform="translate(-0.05 -0.05)" style="fill:#3a3a3a;fill-opacity:0.5"/><path id="Fill-118" d="M193,99.8c.5,3,3.6,9.4,6.9,10.3,1.8.5,3.1-.7,4.4-1.6,2.5-1.7,4.9-3.5,7.4-5.2a2.21,2.21,0,0,0,.8-2.9c-2.2-3.3-4.4-6.7-6.5-10a2.11,2.11,0,0,0-2.9-.7,93,93,0,0,0-8.1,5.9c-1.7,1.5.5,4.1,2.4,3.1a84.73,84.73,0,0,0,7.9-5.4c-1-.2-1.9-.5-2.9-.7,2.2,3.3,4.4,6.7,6.5,10,.3-1,.5-1.9.8-2.9-1.5,1-3,2.1-4.4,3.1-.7.5-3.8,3.3-4.6,3.1-1-.2-2.5-2.9-3.1-3.7a15.24,15.24,0,0,0-3.4-3.3c-.6-.5-1.3.3-1.2.9" transform="translate(-0.05 -0.05)" style="fill:#3a3a3a;fill-opacity:0.5"/><path id="Fill-120" d="M162.1,130.9c-3.4,3.3-4.7,8.4-1.5,12.3a9.6,9.6,0,0,0,12.9,1.5c9.3-7.1-.4-20.3-10.4-17.5a1.63,1.63,0,0,0,.4,3.2c2.9.2,6.1.3,8.4,2.3a6,6,0,0,1,.5,8.4c-5.5,6.7-14.9-3.2-9.2-9.1.8-.7-.3-1.8-1.1-1.1" transform="translate(-0.05 -0.05)" style="fill:#3a3a3a;fill-opacity:0.5"/><path id="Fill-122" d="M241,161.2c-1.2,6.1-2.2,12.2-3.1,18.4a1.92,1.92,0,0,0,2.3,2.3c5.8-.8,11.6-1.6,17.3-2.9a1.71,1.71,0,0,0,1-2.5c-3.2-5.7-7.4-13.6-13.5-16.7-1.5-.8-3.7.9-2.6,2.6,1.8,2.6,4.5,4.5,6.6,6.9a52.09,52.09,0,0,1,6.5,8.9c.5-.9,1-1.7,1.5-2.6-6,.6-11.9,1.7-17.8,2.7.8.6,1.6,1.2,2.3,1.8.7-6.2,1.4-12.3,1.8-18.5.1-1.4-2.1-1.7-2.3-.4" transform="translate(-0.05 -0.05)" style="fill:#3a3a3a;fill-opacity:0.5"/><path id="Fill-124" d="M217,131.3c.1-1.9-3-2.4-3.4-.5a117,117,0,0,0-1.6,18.7,1.18,1.18,0,0,0,2.3.3A104.49,104.49,0,0,0,217,131.3Z" transform="translate(-0.05 -0.05)" style="fill:#3a3a3a;fill-opacity:0.5"/><path id="Fill-126" d="M299.1,150.1a1.7,1.7,0,0,0,0-3.4,113,113,0,0,0-18.4-.1c-1.2.1-1.7,2.1-.3,2.3A97.44,97.44,0,0,0,299.1,150.1Z" transform="translate(-0.05 -0.05)" style="fill:#3a3a3a;fill-opacity:0.5"/><path id="Fill-128" d="M230.5,71.4A105.75,105.75,0,0,0,247.7,79c1.8.6,3.1-2.3,1.3-3.1a109.58,109.58,0,0,0-17.6-6.6c-1.2-.3-2.1,1.5-.9,2.1" transform="translate(-0.05 -0.05)" style="fill:#3a3a3a;fill-opacity:0.5"/><path id="Fill-130" d="M247.7,120.8a3.46,3.46,0,0,0-4.9,4.9l.3.3a3.59,3.59,0,0,0,5,0c1.2-1.3,1.5-3.7,0-5C247.9,120.9,247.8,120.9,247.7,120.8Z" transform="translate(-0.05 -0.05)" style="fill:#3a3a3a;fill-opacity:0.5"/></g><path id="Fill-133" d="M271.4,101.9c-3.5,3.2-4.9,8.1-1.5,11.9a10.34,10.34,0,0,0,13.2,1.5c9.5-6.9-.4-19.5-10.7-16.9-1.9.5-1.4,3,.5,3.1,3,.2,6.2.3,8.6,2.2a5.54,5.54,0,0,1,.5,8.1c-5.6,6.4-15.3-3-9.5-8.8.9-.7-.3-1.8-1.1-1.1" transform="translate(-0.05 -0.05)" style="fill:#7cabff"/><path id="Fill-135" d="M47.8,70.9a11.51,11.51,0,0,0-10.8.9,11.37,11.37,0,0,0-4.9,9.6c.1,2.9,1.3,6.2-.6,8.5-1.5,1.7-4,1.9-6.1,2.8a8.37,8.37,0,0,0-4.1,10.8c1,2.1,2.9,4.1,2.5,6.4a4.88,4.88,0,0,1-2.7,3.4c-1.3.7-2.8,1.2-4.2,1.8-5,2.4-8,8-7.9,13.5s3.2,10.7,7.6,14.1a26.73,26.73,0,0,0,15.5,5.2c5.5.2,11.3-1.1,15.6-4.6a25.12,25.12,0,0,0,6.8-10.2A50.68,50.68,0,0,0,57.9,110c-.7-8.1-3.3-16-3.9-24.1a54.21,54.21,0,0,0-.8-8.1,10.3,10.3,0,0,0-4.3-6.7" transform="translate(-0.05 -0.05)" style="fill:#241352"/><path id="Fill-137" d="M47.9,70.8A24.32,24.32,0,0,1,64.2,57.6,17.28,17.28,0,0,1,77,59.3c3.8,2.3,6.4,6.8,5.8,11.3-.4,2.8-1.8,5.2-2.8,7.9s-1.2,5.8.5,8c1.6,1.9,4.2,2.4,6.3,3.7a9.89,9.89,0,0,1-1,17.4,11.4,11.4,0,0,1,8,4.9,12.45,12.45,0,0,1,1.8,9.4c-1,4.6-4.7,8.1-8.6,10.6a37.46,37.46,0,0,1-18.1,5.7c-6.8.3-14.3-1.7-17.9-7.6-2.4-3.8-2.8-8.6-3.1-13.2-.8-13.7-1.4-27.5-1.9-41.3a24.2,24.2,0,0,1,.3-6.6" transform="translate(-0.05 -0.05)" style="fill:#241352"/><path id="Fill-139" d="M69,133.7l62.2,22.5L125.3,132l16.2-4s17.4,47.3,5.3,48.6c-21.1,2.2-53.1-5.9-53.1-5.9Z" transform="translate(-0.05 -0.05)" style="fill:#ffafa7"/><path id="Fill-141" d="M65,237.9s74-81.1,124-63.4,71,100.3,71,100.3l-39.8-.6s-31.4-62.4-46.8-60S110.7,276,110.7,276Z" transform="translate(-0.05 -0.05)" style="fill:#1633d9"/><path id="Fill-143" d="M87.9,189.4,91,236.6c-16.1,19.5-72-5.7-72-5.7l-.7-19.7-1.3-47c1.3-18.7,18.9-27.9,18.9-27.9,7.3-3.6,18.4-5.6,28.4-5.1,10.4.5,13,5.4,17.3,14.9,3.4,7.4,12.8,19.8,6.3,43.3" transform="translate(-0.05 -0.05)" style="fill:#fb5a5a"/><path id="Fill-145" d="M30.3,239.1s-8.5,35.8,17.5,41.5,121.5-7.6,146.4-5.3,95.6,6.5,95.6,6.5l5.2-42.5s-110.1-5.5-122.6-2.3-142.1,2.1-142.1,2.1" transform="translate(-0.05 -0.05)" style="fill:#2026d6"/><path id="Fill-147" d="M41.8,179S34,225.2,45,224.1c36.4-3.7,58-4.2,58-4.2l6,12.5c.1,2.1-68.9,21.9-79.9,15.4-7.8-4.6-20.3-17-14.6-54.1l1.3-12.4Z" transform="translate(-0.05 -0.05)" style="fill:#ffafa7"/><polygon id="Fill-149" points="75.05 244.95 74.95 241.85 120.45 235.25 132.55 192.15 182.95 190.95 169.35 237.55 75.05 244.95" style="fill:#59bdd9"/><path id="Fill-151" d="M157,214.9a4,4,0,1,1-4.1-3.9,4,4,0,0,1,4.1,3.9" transform="translate(-0.05 -0.05)" style="fill:#fff"/><path id="Fill-153" d="M158,213.4a5.5,5.5,0,1,1-5.6-5.4,5.48,5.48,0,0,1,5.6,5.4" transform="translate(-0.05 -0.05)" style="fill:#fff"/><path id="Fill-155" d="M22.3,148.4S13.9,156.5,12,187l32.6-3.6s5.4-52-22.3-35" transform="translate(-0.05 -0.05)" style="fill:#fb5a5a"/><path id="Fill-157" d="M262,57.6S273.6,84.4,276.8,83,310,62.5,310,62.5s-12.3-24-14.8-25.4S262,57.6,262,57.6" transform="translate(-0.05 -0.05)" style="fill:#fad55a"/><path id="Fill-159" d="M295,39a45.11,45.11,0,0,1-2.2,6.6c-1.5,4-3.6,9.5-6,15.6-.1.1-.1.3-.2.4l-.2.4-.5-.1c-6.7-1-12.7-2-17-2.8s-7-1.3-7-1.4a50.12,50.12,0,0,1,7.1.7c4.4.6,10.4,1.4,17.1,2.5l-.6.3c.1-.1.1-.3.2-.4,2.4-6.1,4.7-11.5,6.3-15.5s2.8-6.4,3-6.3" transform="translate(-0.05 -0.05)" style="fill:#002c68"/><path id="Fill-161" d="M273.1,80c-.3-.1.7-4.2,2.3-9.1S278.6,62,279,62s-.7,4.2-2.3,9.1-3.3,9-3.6,8.9" transform="translate(-0.05 -0.05)" style="fill:#002c68"/><path id="Fill-163" d="M308,56.9c0,.2-4.3-.1-9.6-.6s-9.5-1.1-9.4-1.3,4.3.1,9.6.6,9.4,1.1,9.4,1.3" transform="translate(-0.05 -0.05)" style="fill:#002c68"/><path id="Fill-165" d="M39.5,85.4l.7,9.9s-8.2,1.1-5.8,8.8,7.9,4.3,7.9,4.3,1.4,19.6,21,13.4c15.6-5,14.6-25.7,12.6-43.3A11.59,11.59,0,0,0,62.3,68.3L50.5,70.7a13.74,13.74,0,0,0-11,14.7" transform="translate(-0.05 -0.05)" style="fill:#ffafa7"/><path id="Fill-167" d="M40,102l5.3,29.4a11.42,11.42,0,0,0,13.9,9.3,11.71,11.71,0,0,0,8.6-13.5l-2.9-16.8Z" transform="translate(-0.05 -0.05)" style="fill:#ffafa7"/><path id="Fill-169" d="M62,103.2c.1-.1.2.3.4.3s.7-.3.8-1.1a14,14,0,0,0,0-2.9c-.1-1.2-.1-2.5-.2-3.8-.3-5.3-.3-9.7,0-9.7s.6,4.3.9,9.7c0,1.3.1,2.5.1,3.8a11,11,0,0,1-.2,3.2c-.2,1-.9,1.6-1.4,1.3a.84.84,0,0,1-.4-.8" transform="translate(-0.05 -0.05)" style="fill:#241352"/><path id="Fill-171" d="M68,118c.1.1-.7,1.3-2.3,2.5a13,13,0,0,1-7.1,2.5,12.21,12.21,0,0,1-7.1-2.1c-1.7-1.1-2.5-2.2-2.4-2.3.1-.4,4,3.2,9.5,3s9.2-4,9.4-3.6" transform="translate(-0.05 -0.05)" style="fill:#241352"/><path id="Fill-173" d="M64,107.7c.1.1-.1.8-1,1.4a4.17,4.17,0,0,1-3.9.6,5.26,5.26,0,0,1-2.9-3c-.3-1.1-.2-1.8-.1-1.8s.3.6.8,1.4a4.59,4.59,0,0,0,2.5,2.2,4.84,4.84,0,0,0,3.2-.2c.8-.3,1.2-.7,1.4-.6" transform="translate(-0.05 -0.05)" style="fill:#241352"/><path id="Fill-175" d="M40,104.7c0,.2-.4.4-1,.1a2,2,0,0,1-.9-1.3,2.85,2.85,0,0,1,0-1.3,1.44,1.44,0,0,1,.7-1.1c.4-.3,1-.1,1.3.6l-.7.6c-.5-1.8-.7-3.3-.5-3.4s.7,1.1,1.3,2.9l-.7.6s-.1-.1-.3,0-.2.4-.2.8a2.47,2.47,0,0,0,.4.9c.2.3.6.4.6.6" transform="translate(-0.05 -0.05)" style="fill:#241352"/><path id="Fill-177" d="M69.3,90c-.3,0-.7-.4-.8-.9s-.1-1,.2-1.1.7.4.8.9.1,1.1-.2,1.1" transform="translate(-0.05 -0.05)" style="fill:#241352"/><path id="Fill-179" d="M51.4,91c-.3.1-.7-.3-.9-.9s-.2-1,.1-1.1.7.3.9.9.2,1-.1,1.1" transform="translate(-0.05 -0.05)" style="fill:#241352"/><path id="Fill-181" d="M54,86.8c-.1.3-1,.3-2,.5s-1.8.6-2,.4.4-1.1,1.7-1.4,2.4.2,2.3.5" transform="translate(-0.05 -0.05)" style="fill:#241352"/><path id="Fill-183" d="M70,82.2c-.1.3-1,.1-2,.2s-1.8.4-2,.1.6-1,1.9-1.2c1.3,0,2.2.6,2.1.9" transform="translate(-0.05 -0.05)" style="fill:#241352"/><path id="Fill-185" d="M39.2,95.5c5.4-5.5,7-14.5,8.5-22.2a18.44,18.44,0,0,0,17.7,2.4,31,31,0,0,0,6.3,5.7c.7.4,1.5.9,2.2.6.9-.3,1.3-1.4,1.5-2.3a17.27,17.27,0,0,0-.3-9.3,11.36,11.36,0,0,0-6-6.7c-3-1.2-6.4-.7-9.6.2A52,52,0,0,0,46,69.7c-4.2,2.5-8.1,5.8-9.9,10.4S34.3,93.7,38.6,96" transform="translate(-0.05 -0.05)" style="fill:#241352"/><path id="Fill-187" d="M58.6,110.9c-1.5-.4-2-2.4-1.3-3.8s1.7-2.2,2.3-2.1,1.2,1.4,1.4,3.1S60.1,111.3,58.6,110.9Z" transform="translate(-0.05 -0.05)" style="fill:#241352;fill-opacity:0.20000000298023224"/><path id="Fill-189" d="M51.1,103c-2.4.1-4.2-1.4-4.1-3s1.9-2.8,3.9-2.9,3.8.9,4.1,2.5S53.5,102.9,51.1,103Z" transform="translate(-0.05 -0.05)" style="fill:#241352;fill-opacity:0.11999999731779099"/><path id="Fill-191" d="M72.1,102c-2.4.1-4.3-1.4-4.1-3s1.9-2.8,3.8-2.9,3.8.9,4.1,2.5S74.6,101.9,72.1,102Z" transform="translate(-0.05 -0.05)" style="fill:#241352;fill-opacity:0.11999999731779099"/><path id="Fill-193" d="M40.2,120c-.3,0-.5-3.1-.6-7s-.3-7,0-7,.9,3.1,1.1,7-.2,7-.5,7" transform="translate(-0.05 -0.05)" style="fill:#6042dd"/><path id="Fill-195" d="M73.5,132.2c-5.2-2.1,34.5,13,34.5,13L104,173l-15.1-5.1Z" transform="translate(-0.05 -0.05)" style="fill:#fb5a5a"/><path id="Fill-197" d="M47.8,69.7a11.1,11.1,0,0,0,1-7.4c-.4-2.1-1.7-4.1-3.4-4.2a3.32,3.32,0,0,0-2.7,1.4,8.28,8.28,0,0,0-1.1,8.2c1.1,2.6,3.9,4,6.2,3.2" transform="translate(-0.05 -0.05)" style="fill:#241352"/><path id="Fill-199" d="M293.4,248.5s13.1-19.1,11.5-11.9S290,276,290,276Z" transform="translate(-0.05 -0.05)" style="fill:#241352"/><path id="Fill-201" d="M99.4,219.2s17.9-5.7,17.3-3.8-3.7,2-6.7,5c0,0,20,.2,19,1.9s-14,2.1-14.1,2.4,14.2.6,13.9,2.2-13.6,1.2-13.6,1.2,12.3,1.3,12.1,3-11.6.5-11.6.5,9.5,1.1,9.3,2.6c-.1.9-27.9,1.1-27.9,1.8-.1.4,2.3-16.8,2.3-16.8" transform="translate(-0.05 -0.05)" style="fill:#ffafa7"/><path id="Fill-203" d="M126.5,132s-11.2-14.6-9.2-14.6,3,2.8,6.9,4.6c0,0-6.2-18.2-4.3-17.8s6.5,12.1,6.8,12.1-4-13.1-2.4-13.3,5.5,12,5.5,12-2.7-11.6-1-11.9,4.2,10.4,4.2,10.4-2-9-.5-9.2c.9-.1,9.4,22.1,9.4,22.1s-15.4,5.6-15.4,5.6" transform="translate(-0.05 -0.05)" style="fill:#ffafa7"/><path id="Fill-205" d="M27.5,174c.1,0,.5.7.5,2.2a3.59,3.59,0,0,1-1,2.4,1.91,1.91,0,0,1-1.5.4,2.21,2.21,0,0,1-1.3-1c-.6-.8-1-1.3-1.7-1.4a1.57,1.57,0,0,0-1.5.5c-.7.8-.7,1.7-.9,1.7s-.5-1,.3-2.2a2.28,2.28,0,0,1,2.1-1,1.94,1.94,0,0,1,1.3.6,10,10,0,0,1,1,1.1c1,1.6,2.3,0,2.4-1.1.3-1.3.2-2.2.3-2.2" transform="translate(-0.05 -0.05)" style="fill:#fcf2fc"/><path id="Fill-207" d="M36,165.1c-.1-.1.3-.9,1.5-1.7a2.41,2.41,0,0,1,2.5-.2,2.21,2.21,0,0,1,1.2,1.3,4.06,4.06,0,0,1,0,1.9,3.75,3.75,0,0,0-.2,2.5,2.35,2.35,0,0,0,1.3,1.3c1,.3,1.8-.2,1.8,0s-.5,1-2,.8a2.83,2.83,0,0,1-2-1.6,4.67,4.67,0,0,1-.3-1.7c.1-.6.2-1.1.3-1.6.7-1.9-1.3-2.4-2.2-1.8-1.1.4-1.8,1-1.9.8" transform="translate(-0.05 -0.05)" style="fill:#fcf2fc"/><path id="Fill-209" d="M36,144.1c-.1-.1.3-.9,1.5-1.7a2.41,2.41,0,0,1,2.5-.2,2.21,2.21,0,0,1,1.2,1.3,4.06,4.06,0,0,1,0,1.9,3.75,3.75,0,0,0-.2,2.5,2.35,2.35,0,0,0,1.3,1.3c1,.3,1.8-.2,1.8,0s-.5,1-2,.8a2.83,2.83,0,0,1-2-1.6,4.67,4.67,0,0,1-.3-1.7c.1-.6.2-1.1.3-1.6.7-1.9-1.3-2.4-2.2-1.8-1.1.4-1.8,1-1.9.8" transform="translate(-0.05 -0.05)" style="fill:#fcf2fc"/><path id="Fill-211" d="M57.5,172c-.1.1-.9-.2-1.9-1.3a2.28,2.28,0,0,1-.5-2.3,2,2,0,0,1,1.2-1.2,3.15,3.15,0,0,1,1.9-.1,4.51,4.51,0,0,0,2.6,0,1.9,1.9,0,0,0,1.2-1.3c.2-1-.4-1.7-.2-1.7s1.1.4,1.1,1.8a2.29,2.29,0,0,1-1.5,2,4.71,4.71,0,0,1-1.7.4,8.81,8.81,0,0,1-1.7-.2,1.47,1.47,0,0,0-1.7,2.3c.7.9,1.4,1.5,1.2,1.6" transform="translate(-0.05 -0.05)" style="fill:#fcf2fc"/><path id="Fill-213" d="M72,193.2c.1.1-.4.8-1.7,1.5a2.93,2.93,0,0,1-2.6,0,1.81,1.81,0,0,1-1.1-1.4,2.75,2.75,0,0,1,.2-1.8,3.69,3.69,0,0,0,.4-2.4,2,2,0,0,0-1.2-1.3,4.17,4.17,0,0,0-1.9-.1c-.1-.1.6-.9,2.1-.7a2.93,2.93,0,0,1,2.2,3.3,5.27,5.27,0,0,1-.5,1.5c-.9,1.7,1.2,2.4,2.2,2s1.8-.8,1.9-.6" transform="translate(-0.05 -0.05)" style="fill:#fcf2fc"/><path id="Fill-215" d="M89,159.2c.1.1-.4.8-1.7,1.5a2.93,2.93,0,0,1-2.6,0,1.81,1.81,0,0,1-1.1-1.4,2.75,2.75,0,0,1,.2-1.8,3.69,3.69,0,0,0,.4-2.4,2,2,0,0,0-1.2-1.3,4.17,4.17,0,0,0-1.9-.1c-.1-.1.6-.9,2.1-.7a2.93,2.93,0,0,1,2.2,3.3,5.27,5.27,0,0,1-.5,1.5c-.9,1.8,1.2,2.4,2.2,2s1.8-.8,1.9-.6" transform="translate(-0.05 -0.05)" style="fill:#fcf2fc"/><path id="Fill-217" d="M99,155c.1-.1.9.1,2.1,1a3,3,0,0,1,1,2.4,2.2,2.2,0,0,1-.9,1.5,3.13,3.13,0,0,1-1.8.4,4.35,4.35,0,0,0-2.5.4,1.89,1.89,0,0,0-.9,1.5c0,1.1.7,1.7.6,1.8s-1.1-.2-1.4-1.7a2.84,2.84,0,0,1,1-2.4,3.38,3.38,0,0,1,1.6-.7,8.53,8.53,0,0,1,1.6,0c2,.2,1.9-1.8,1.1-2.6s-1.7-1.4-1.5-1.6" transform="translate(-0.05 -0.05)" style="fill:#fcf2fc"/><path id="Fill-219" d="M53,211.2c.1.1-.4.8-1.7,1.5a2.93,2.93,0,0,1-2.6,0,1.81,1.81,0,0,1-1.1-1.4,2.75,2.75,0,0,1,.2-1.8,3.69,3.69,0,0,0,.4-2.4,2,2,0,0,0-1.2-1.3,4.09,4.09,0,0,0-1.9-.1c-.1-.1.6-.9,2.1-.7a2.93,2.93,0,0,1,2.2,3.3,5.27,5.27,0,0,1-.5,1.5c-.9,1.8,1.2,2.4,2.2,2s1.8-.8,1.9-.6" transform="translate(-0.05 -0.05)" style="fill:#fcf2fc"/><path id="Fill-221" d="M78,178c-.1.1-.8-.3-1.6-1.5a2.45,2.45,0,0,1-.1-2.5,2.21,2.21,0,0,1,1.3-1.2,2.7,2.7,0,0,1,1.8.1c1.1.4,1.7.6,2.4.3a2,2,0,0,0,1.3-1.2,3.46,3.46,0,0,0,0-1.9c.1-.1,1,.5.8,2.1a2.75,2.75,0,0,1-1.7,2,3.21,3.21,0,0,1-1.7.2A15.46,15.46,0,0,1,79,174c-1.8-.8-2.4,1.2-1.9,2.2s1,1.7.9,1.8" transform="translate(-0.05 -0.05)" style="fill:#fcf2fc"/><path id="Fill-223" d="M83,195c-.1.1-.8-.3-1.6-1.6a2.45,2.45,0,0,1-.1-2.5,2.21,2.21,0,0,1,1.3-1.2,2.7,2.7,0,0,1,1.8.1c1.1.4,1.7.6,2.4.3a2,2,0,0,0,1.3-1.2,3.46,3.46,0,0,0,0-1.9c.1-.1,1,.5.8,2.1a2.75,2.75,0,0,1-1.7,2,3.21,3.21,0,0,1-1.7.2,15.46,15.46,0,0,1-1.5-.4c-1.8-.8-2.4,1.2-1.9,2.2s1,1.8.9,1.9" transform="translate(-0.05 -0.05)" style="fill:#fcf2fc"/><path id="Fill-225" d="M47.2,189a4.55,4.55,0,0,1-.1-2.5,3,3,0,0,1,1.6-2.3,2,2,0,0,1,1.7,0,3.23,3.23,0,0,1,1.2,1.4c.5,1.1.8,1.7,1.5,2a1.71,1.71,0,0,0,1.7-.1c.9-.6,1.1-1.6,1.3-1.6a2.27,2.27,0,0,1-.8,2.3,2.3,2.3,0,0,1-2.4.5,3.05,3.05,0,0,1-1.3-1,10.93,10.93,0,0,1-.8-1.5c-.7-2-2.4-.7-2.7.5-.7,1.3-.7,2.3-.9,2.3" transform="translate(-0.05 -0.05)" style="fill:#fcf2fc"/><path id="Fill-227" d="M79.2,211a4.55,4.55,0,0,1-.1-2.5,3,3,0,0,1,1.6-2.3,2,2,0,0,1,1.7,0,3.23,3.23,0,0,1,1.2,1.4c.5,1.1.8,1.7,1.5,2a1.71,1.71,0,0,0,1.7-.1c.9-.6,1.1-1.6,1.3-1.6a2.27,2.27,0,0,1-.8,2.3,2.3,2.3,0,0,1-2.4.5,3.05,3.05,0,0,1-1.3-1,10.93,10.93,0,0,1-.8-1.5c-.7-2-2.4-.7-2.7.5-.7,1.3-.7,2.3-.9,2.3" transform="translate(-0.05 -0.05)" style="fill:#fcf2fc"/><path id="Fill-229" d="M79.2,144a4.55,4.55,0,0,1-.1-2.5,3,3,0,0,1,1.6-2.3,2,2,0,0,1,1.7,0,3.23,3.23,0,0,1,1.2,1.4c.5,1.1.8,1.7,1.5,2a1.71,1.71,0,0,0,1.7-.1c.9-.6,1.1-1.6,1.3-1.6a2.48,2.48,0,0,1-3.2,2.8,3.05,3.05,0,0,1-1.3-1,10.93,10.93,0,0,1-.8-1.5c-.7-2-2.4-.7-2.7.5-.7,1.4-.7,2.3-.9,2.3" transform="translate(-0.05 -0.05)" style="fill:#fcf2fc"/><path id="Fill-231" d="M67.8,219c-.1.1-1,0-2.4-.8A2.88,2.88,0,0,1,64,216a1.77,1.77,0,0,1,.8-1.5,4.67,4.67,0,0,1,1.9-.6,4.48,4.48,0,0,0,2.6-.7,1.69,1.69,0,0,0,.7-1.6c-.2-1.1-1-1.5-.9-1.7a2,2,0,0,1,1.8,1.5,2.34,2.34,0,0,1-.7,2.4,2.72,2.72,0,0,1-1.6.8,5.54,5.54,0,0,1-1.8.2c-2.2,0-1.8,2-.8,2.6,1,1,1.9,1.4,1.8,1.6" transform="translate(-0.05 -0.05)" style="fill:#fcf2fc"/><path id="Fill-233" d="M30.4,153c.1-.1.8.5,1.4,1.8a3.21,3.21,0,0,1-.1,2.7,2,2,0,0,1-1.4,1.1,3.06,3.06,0,0,1-1.7-.3c-1-.5-1.6-.8-2.3-.5a2.14,2.14,0,0,0-1.4,1.2,3.91,3.91,0,0,0-.2,2c-.1.1-.9-.7-.5-2.3a3,3,0,0,1,1.8-2,2.92,2.92,0,0,1,1.6-.1,5.91,5.91,0,0,1,1.4.6c1.7,1,2.4-1.1,2-2.2s-.8-1.9-.6-2" transform="translate(-0.05 -0.05)" style="fill:#fcf2fc"/><path id="Fill-235" d="M66.4,148c.1-.1.8.5,1.4,1.8a3.21,3.21,0,0,1-.1,2.7,2,2,0,0,1-1.4,1.1,3.06,3.06,0,0,1-1.7-.3c-1-.5-1.6-.8-2.3-.5a2.14,2.14,0,0,0-1.4,1.2,3.91,3.91,0,0,0-.2,2c-.1.1-.9-.7-.5-2.3a3,3,0,0,1,1.8-2,2.92,2.92,0,0,1,1.6-.1,5.91,5.91,0,0,1,1.4.6c1.7,1,2.4-1.1,2-2.2s-.8-1.9-.6-2" transform="translate(-0.05 -0.05)" style="fill:#fcf2fc"/><path id="Fill-237" d="M44.1,187a6.77,6.77,0,0,1,0-2.3c.1-1.5.3-3.7.5-6.3.5-5.3,1.2-12.7,2.1-20.8a22.51,22.51,0,0,0,0-5.8,9.85,9.85,0,0,0-2-4.8,12.89,12.89,0,0,0-7.4-4.7,20.05,20.05,0,0,0-6.1-.5c-1.5.1-2.3.1-2.3.1a6.34,6.34,0,0,1,2.2-.5,19.72,19.72,0,0,1,6.3.2,12.9,12.9,0,0,1,8,4.9,10.53,10.53,0,0,1,2.2,5.3,24.9,24.9,0,0,1,0,6.1c-.9,8.1-1.7,15.5-2.4,20.8q-.45,4.05-.9,6.3a5,5,0,0,1-.2,2" transform="translate(-0.05 -0.05)" style="fill:#241352"/><path id="Fill-239" d="M47,185c0,.2-7.5.7-16.9,1.3s-17,.8-17.1.6,7.5-.7,16.9-1.3c9.4-.4,17.1-.7,17.1-.6" transform="translate(-0.05 -0.05)" style="fill:#241352"/><path id="Fill-241" d="M89.7,180c-.4,0,1.4-6.5-.6-14.2S82.7,153.2,83,153c.1-.1,1.3,1,2.9,3.1a28.5,28.5,0,0,1,4.3,9.4,26.9,26.9,0,0,1,.6,10.3,12.63,12.63,0,0,1-1.1,4.2" transform="translate(-0.05 -0.05)" style="fill:#241352"/><path id="Fill-243" d="M176.2,180.2c.3-1.8.2-3.5,1.3-5.1,2-3.2,5-2.4,7.8-1s5.6,2.3,8.7.9c4.9-2.1,7.1-9.3,2.5-12.7-1.5-1.1-3,.7-2.8,2.1.3,2,1.3,4.1-.4,5.8-2.3,2.2-4.9.4-7.2-.6a9.55,9.55,0,0,0-7.6-.3c-4.3,1.7-7.5,7.5-4,11.4a1,1,0,0,0,1.7-.5" transform="translate(-0.05 -0.05)" style="fill:#7e2e84"/><path id="Fill-245" d="M189,95.6c.4,3,3.5,9.4,6.6,10.3,1.7.5,2.9-.7,4.2-1.6,2.4-1.7,4.7-3.5,7.1-5.2a2.11,2.11,0,0,0,.7-2.9c-2.1-3.4-4.2-6.7-6.3-10.1a2,2,0,0,0-2.7-.8,73.61,73.61,0,0,0-7.8,6c-1.6,1.5.5,4.1,2.3,3.1a79.08,79.08,0,0,0,7.5-5.4c-.9-.3-1.8-.5-2.8-.8,2.1,3.4,4.2,6.7,6.3,10.1.2-1,.5-1.9.7-2.9-1.4,1.1-2.8,2.1-4.2,3.2-.7.5-3.6,3.3-4.4,3.1s-2.4-3-3-3.7a16.68,16.68,0,0,0-3.2-3.3c-.5-.5-1.1.2-1,.9" transform="translate(-0.05 -0.05)" style="fill:#fb5a5a"/><path id="Fill-247" d="M159.4,126.9c-3.5,3.2-4.9,8.1-1.5,11.9a10.34,10.34,0,0,0,13.2,1.5c9.5-6.9-.4-19.5-10.7-16.9-1.9.5-1.4,3,.5,3.1,3,.2,6.2.3,8.6,2.2a5.54,5.54,0,0,1,.5,8.1c-5.6,6.4-15.3-3-9.5-8.8.9-.7-.3-1.8-1.1-1.1" transform="translate(-0.05 -0.05)" style="fill:#7cabff"/><path id="Fill-249" d="M237,156.7q-1.65,9.45-3,18.9c-.2,1.5.8,2.6,2.2,2.3,5.6-.9,11.1-1.7,16.6-3a1.81,1.81,0,0,0,1-2.6c-3.1-5.9-7.1-14-12.9-17.2-1.5-.8-3.6.9-2.5,2.6,1.7,2.7,4.3,4.7,6.3,7.1a53,53,0,0,1,6.2,9.2c.5-.9.9-1.8,1.4-2.6-5.7.6-11.4,1.7-17.1,2.8.7.6,1.5,1.2,2.2,1.8.7-6.4,1.3-12.7,1.7-19.1.2-1.2-1.8-1.5-2.1-.2" transform="translate(-0.05 -0.05)" style="fill:#ff7081"/><path id="Fill-251" d="M209.8,145.2a90.76,90.76,0,0,0,3.2-18.5c.1-1.9-3.7-2.4-4.1-.5a83.32,83.32,0,0,0-1.9,18.6c0,1.3,2.4,1.7,2.8.4" transform="translate(-0.05 -0.05)" style="fill:#ff957e"/><path id="Fill-253" d="M276.8,144.4a80.65,80.65,0,0,0,17.6,1.6c2.1-.1,2.1-4.1,0-4.4a77,77,0,0,0-17.3-.1c-1.2.1-1.6,2.6-.3,2.9" transform="translate(-0.05 -0.05)" style="fill:#fb5a5a"/><path id="Fill-255" d="M227.5,68a98.19,98.19,0,0,0,16.4,6.9c1.8.5,3-2.1,1.3-2.9a98.76,98.76,0,0,0-16.8-6c-1.2-.3-2,1.4-.9,2" transform="translate(-0.05 -0.05)" style="fill:#ff7081"/><path id="Fill-257" d="M244.9,116.4l-.3-.3c-1.5-1.3-4-1.6-5.4,0a3.9,3.9,0,0,0,0,5.4l.3.3a3.92,3.92,0,0,0,5.5,0c1.2-1.4,1.5-4-.1-5.4" transform="translate(-0.05 -0.05)" style="fill:#241352"/><path id="Fill-259" d="M109.6,5.6A22.14,22.14,0,0,0,96.3,19.2,24.16,24.16,0,0,0,98,38.7c6.1,11.3,22,14.9,32.1,7.3s12-24.5,3.9-34.4-24.3-10.3-32.9-.9" transform="translate(-0.05 -0.05)" style="fill:#bad8ff"/></g></g></g></svg>