<svg id="Layer_1" data-name="Layer 1" xmlns="http://www.w3.org/2000/svg" viewBox="0 0 283 313.98"><title>signup</title><g id="Page-1"><g id="_03" data-name="03"><g id="Group-109"><path id="Fill-1" d="M107.3,140.9c-3.3,3.2-4.6,8.1-1.4,11.9a9.41,9.41,0,0,0,12.5,1.5c9-6.9-.4-19.5-10.1-16.9a1.58,1.58,0,0,0,.4,3.1c2.8.2,5.9.3,8.2,2.2a5.8,5.8,0,0,1,.5,8.1c-5.3,6.4-14.5-3-9-8.8a.78.78,0,0,0-1.1-1.1" transform="translate(0 -0.02)" style="fill:#7ca1ff"/><path id="Fill-3" d="M201,152.3c1.2,4.6,2.5,9.1,3.9,13.6a1.35,1.35,0,0,0,2.2.8c3.5-2.5,7.1-4.9,10.5-7.7a1.45,1.45,0,0,0-.1-2.1c-3.9-2.8-9.3-6.9-14.3-6.9-1.3,0-2.2,1.8-.9,2.6,2,1.2,4.4,1.6,6.6,2.6a37.65,37.65,0,0,1,7.1,3.9,16.2,16.2,0,0,0,.1-2.2c-3.8,2.4-7.3,5.1-10.9,7.7.7.1,1.4.3,2.1.4-1.5-4.5-3.1-8.9-4.8-13.3-.2-.9-1.7-.4-1.5.6" transform="translate(0 -0.02)" style="fill:#ff4d62"/><path id="Fill-5" d="M226.4,174.9a101.83,101.83,0,0,0,15.8-8.9c1.8-1.3,0-3.7-1.9-2.8a103.73,103.73,0,0,0-15,9.7c-.8.7-.1,2.6,1.1,2" transform="translate(0 -0.02)" style="fill:#fbc580"/><path id="Fill-7" d="M26,192.9a97.38,97.38,0,0,0-4.7-16.8,1.68,1.68,0,0,0-3.2,1,94.46,94.46,0,0,0,5.7,16.2c.4,1.1,2.4.9,2.2-.4" transform="translate(0 -0.02)" style="fill:#ff957e"/><path id="Fill-9" d="M43.9,139.4l-.3-.3c-1.5-1.3-4-1.6-5.4,0a3.9,3.9,0,0,0,0,5.4l.3.3a3.92,3.92,0,0,0,5.5,0c1.2-1.4,1.5-4-.1-5.4" transform="translate(0 -0.02)" style="fill:#241352"/><path id="Fill-11" d="M187,293.2s-57.1,13.2-80-9.6l8.2-54.6c2.5-15.7,1-45.9,13.1-56.6a18.71,18.71,0,0,1,4.6-3.1c8.5-4.1,23.5-6.3,37.9-6.3,17.5-.1,35.6,13.2,40.2,30l-19,44.3Z" transform="translate(0 -0.02)" style="fill:#ff4d62"/><path id="Fill-13" d="M182.3,199.8s25.6,49,12.9,51.6C153.4,260,129.1,267,129.1,267L127,283.1c.6,2.4,84.6.3,94.6-10.9,7-7.9,16.4-26.2-3.5-65.8l-6-13.5Z" transform="translate(0 -0.02)" style="fill:#ffafa7"/><path id="Fill-15" d="M135,172.9,71.2,197.3l-2-33.1L55.5,159s-19.8,53.2,5,63.1,52.7-8.4,52.7-8.4Z" transform="translate(0 -0.02)" style="fill:#ffafa7"/><path id="Fill-17" d="M142,166c-22,7.1-35.1,15.3-66,28.3L91.9,230l27.4-8.9Z" transform="translate(0 -0.02)" style="fill:#ff4d62"/><polyline id="Fill-19" points="179 192.38 195 229.97 231 223.28 206.7 180.97 178 192.38" style="fill:#ff4d62"/><path id="Fill-21" d="M159.4,217.7c7.7-.4,15.4-.1,23.1,0,.7,0,.6-.9,0-1-7.6-.9-15.5-.5-23.1.1-.5.1-.6,1,0,.9" transform="translate(0 -0.02)" style="fill:#682132"/><path id="Fill-23" d="M193.7,174c-26,2.4-8.2,41-1.6,52.7a.58.58,0,1,0,1-.6c-6.6-11.8-24.3-47.8.6-51.5.4,0,.3-.6,0-.6" transform="translate(0 -0.02)" style="fill:#682132"/><path id="Fill-25" d="M121.3,196.2a209,209,0,0,0-6.3,39.3c0,.5.9.7,1,.1,1.9-13.1,3.8-26.2,6-39.2.1-.4-.6-.6-.7-.2" transform="translate(0 -0.02)" style="fill:#682132"/><path id="Fill-27" d="M183.3,125c.4-5.6.8-11.1,1.2-16.7,4.4-1.2,6.7-6.8,4.9-11s-6.7-6.5-11.2-5.9c2.8-1.9,2.6-6.5.3-9s-6-3.3-9.4-3.5-6.9.3-10.3-.3c-3-.6-5.9-1.9-8.9-1.5s-5.9,3.8-4.3,6.3c-4.4-.6-9.1-1.2-12.9.9s-5.8,8.1-2.5,10.9c-2.2,1.1-2.7,4.3-1.5,6.4s3.8,3.2,6.2,3.4a20.25,20.25,0,0,0,7.3-1.1" transform="translate(0 -0.02)" style="fill:#241352"/><path id="Fill-29" d="M182.4,114.3l-.9,11.5s9.7,1.3,6.9,10.2-9.4,5-9.4,5-1.7,22.8-24.8,15.6c-18.5-5.8-17.3-29.9-15-50.4a13.67,13.67,0,0,1,16.2-11.9L169.3,97a16.18,16.18,0,0,1,13.1,17.3" transform="translate(0 -0.02)" style="fill:#ffafa7"/><path id="Fill-31" d="M181,136l-6.3,33.2a13.52,13.52,0,0,1-16.4,10.5,13.25,13.25,0,0,1-10.1-15.3l3.4-19Z" transform="translate(0 -0.02)" style="fill:#ffafa7"/><path id="Fill-33" d="M155,136.1s.1.5-.6.8-1.8-.4-2.1-1.6a12.14,12.14,0,0,1-.3-3.9c.1-1.5.2-3,.2-4.6.4-6.6.9-11.9,1.2-11.8s.2,5.3-.2,11.9c-.1,1.6-.2,3.1-.3,4.6a14.3,14.3,0,0,0,0,3.6c.2,1,.8,1.4,1.3,1.4s.7-.5.8-.4" transform="translate(0 -0.02)" style="fill:#241352"/><path id="Fill-35" d="M147,154c.1-.1,1.2.6,3.2,1.3a22.47,22.47,0,0,0,8.2,1.6,24.07,24.07,0,0,0,8.3-1.3c2-.7,3.2-1.4,3.3-1.2s-.9,1-3,1.9a20.14,20.14,0,0,1-8.6,1.7,20.42,20.42,0,0,1-8.5-2c-2-1-3-1.9-2.9-2" transform="translate(0 -0.02)" style="fill:#241352"/><path id="Fill-37" d="M152,140.8c.1-.1.7.4,1.7.8a6.87,6.87,0,0,0,4.1.3,6.2,6.2,0,0,0,3.2-2.3c.6-.8.7-1.5.9-1.5s.3.7-.1,1.8a5.67,5.67,0,0,1-3.5,3,6.9,6.9,0,0,1-4.9-.6c-1.2-.8-1.5-1.4-1.4-1.5" transform="translate(0 -0.02)" style="fill:#241352"/><path id="Fill-39" d="M182,136.8c0-.2.6-.2,1.2-.6a1.6,1.6,0,0,0,.7-.9c.1-.4,0-.8-.3-.9a.56.56,0,0,0-.6.1l-.9-.5c.9-1.8,1.7-3,1.9-2.9s-.2,1.5-.9,3.4l-.9-.5a1.61,1.61,0,0,1,1.9-.6,1.44,1.44,0,0,1,1,1,1.63,1.63,0,0,1-.1,1.2,2.7,2.7,0,0,1-1.3,1.3c-1.1.3-1.7,0-1.7-.1" transform="translate(0 -0.02)" style="fill:#241352"/><path id="Fill-41" d="M164,114.7c-.1-.3.9-.9,2.2-.5s1.9,1.5,1.7,1.6-.9-.3-2-.6c-.9-.3-1.8-.2-1.9-.5" transform="translate(0 -0.02)" style="fill:#241352"/><path id="Fill-43" d="M143,110.2c-.1-.2,1-1,2.6-.9s2.6,1.1,2.4,1.3-1.2-.2-2.5-.3-2.4.2-2.5-.1" transform="translate(0 -0.02)" style="fill:#241352"/><path id="Fill-45" d="M181,126.4c-6.5-6.4-8.4-17.2-10.1-26.2a22.1,22.1,0,0,1-21.2,2.8,34,34,0,0,1-7.5,6.7,3.91,3.91,0,0,1-2.7.8c-1.1-.3-1.6-1.6-1.8-2.7a19.61,19.61,0,0,1,.4-11,12.84,12.84,0,0,1,7.2-7.9c3.6-1.4,7.7-.8,11.5.2A64,64,0,0,1,173,95.9c5,3,9.7,6.9,11.8,12.3s2.1,16.1-3,18.8" transform="translate(0 -0.02)" style="fill:#241352"/><path id="Fill-47" d="M165.9,123c-.3,0-.5-.7-.4-1.5s.4-1.5.6-1.5.5.7.4,1.5-.3,1.5-.6,1.5" transform="translate(0 -0.02)" style="fill:#241352"/><path id="Fill-49" d="M146.9,121c-.3,0-.5-.7-.4-1.5s.4-1.5.6-1.5.5.7.4,1.5-.3,1.5-.6,1.5" transform="translate(0 -0.02)" style="fill:#241352"/><path id="Fill-51" d="M54,160.5s2.8-17.5,6.2-17.3,10.1,0,10.1,0,.6-16.6,2.4-14,2.5,25-4.8,35.7Z" transform="translate(0 -0.02)" style="fill:#ffafa7"/><path id="Fill-53" d="M129,267s-29.6,5.3-29,9.2a28.23,28.23,0,0,0,2.7,7.8l26.3-.6Z" transform="translate(0 -0.02)" style="fill:#ffafa7"/><polygon id="Fill-55" points="162 284.68 161.8 280.48 99.4 276.68 78.5 220.97 10 224.68 33.4 284.98 162 284.68" style="fill:#4a5ee6"/><path id="Fill-57" d="M48,251.3a5,5,0,1,0,4.7-5.3,5.09,5.09,0,0,0-4.7,5.3" transform="translate(0 -0.02)" style="fill:#fff"/><path id="Fill-59" d="M46,251.4a7,7,0,1,0,6.6-7.4,7,7,0,0,0-6.6,7.4" transform="translate(0 -0.02)" style="fill:#fff"/><g id="Group-63"><path id="Fill-61" d="M0,286.2l267.3-3.3,15.7,8s-205.2,55-283-4.7" transform="translate(0 -0.02)" style="fill:#aecaf5"/></g><path id="Fill-64" d="M158,25.1s-13.6.7-14,15.1c0,0,.2,7.9,4.5,10.8s4.1,6.1,4.1,6.1h11.3s-.5-4,1.4-6.3,6.3-7,5.7-13.9c-.7-7.1-6-12.5-13-11.8" transform="translate(0 -0.02)" style="fill:#ffd417"/><path id="Fill-66" d="M152.5,60.7c4-.2,8,.2,12,0a.5.5,0,0,0,.1-1c-3.9-.8-8.3-.3-12.2.1a.45.45,0,0,0,.1.9" transform="translate(0 -0.02)" style="fill:#4a5ee6"/><path id="Fill-68" d="M154.5,64.7a41.73,41.73,0,0,1,5-.1c1.7,0,3.3.3,5,.2a.5.5,0,0,0,.1-1c-3.2-.8-7-.3-10.2.1-.6,0-.5.8.1.8" transform="translate(0 -0.02)" style="fill:#4a5ee6"/><path id="Fill-70" d="M155.4,66.3a27.1,27.1,0,0,0,4,.4.62.62,0,0,0,.2-1.2,11.78,11.78,0,0,0-4.2-.2.52.52,0,0,0,0,1" transform="translate(0 -0.02)" style="fill:#4a5ee6"/><path id="Fill-72" d="M156.1,56.4c.3-4.1-1.1-8.6-1.8-12.6-.4.2-.8.3-1.2.5.6.9,1.6,3.7,3.1,3.6s2.1-2.8,2.4-3.9h-1.3c.3,1.3.3,4.3,2.4,4,1.7-.2,2.9-2.7,3.4-4.1a7.37,7.37,0,0,1-1.4-.4c-1,4-1.5,9-.5,13,.2.7,1.4.6,1.3-.2-.1-4.2-.7-8.4.6-12.5.3-.9-1.1-1.2-1.4-.4-.2.5-1.3,3.1-2.4,2.8-.3-.1-.6-2.5-.7-2.7-.2-.6-1.2-.7-1.3,0s-.5,3-1.5,2.4c-.6-.4-1.1-1.8-1.4-2.3-.4-.7-1.3-.2-1.2.5.7,4,.8,8.7,2.5,12.4-.1.3.4.1.4-.1" transform="translate(0 -0.02)" style="fill:#4a5ee6"/><path id="Fill-74" d="M115.6,52c6.3-1.7,12.9-3.2,19.1-5.3a.36.36,0,1,0-.2-.7c-6.5,1.4-12.8,3.4-19.1,5.1a.46.46,0,1,0,.2.9" transform="translate(0 -0.02)" style="fill:#ffd417"/><path id="Fill-76" d="M123.5,33.7c3.9-.1,8,.1,12-.3.7-.1.7-.9,0-1a96.66,96.66,0,0,0-12,.3.5.5,0,1,0,0,1" transform="translate(0 -0.02)" style="fill:#ffd417"/><path id="Fill-78" d="M141.8,27c-4.4-3.9-8.6-8.8-13.7-11.9-.8-.5-1.5.6-.9,1.3,3.9,4.5,9.3,7.8,13.8,11.5.6.4,1.4-.4.8-.9" transform="translate(0 -0.02)" style="fill:#ffd417"/><path id="Fill-80" d="M152,21.7a7.7,7.7,0,0,0-1.5-3.6,16,16,0,0,0-2.3-3.8.74.74,0,0,0-1.2.8,18.65,18.65,0,0,0,2.2,3.9c.6,1.1,1.3,2.5,2.4,3.1a.43.43,0,0,0,.4-.4" transform="translate(0 -0.02)" style="fill:#ffd417"/><g id="Group-84"><path id="Fill-82" d="M160.5,19.3A144.32,144.32,0,0,0,160.3.7a.65.65,0,1,0-1.3,0,144.4,144.4,0,0,0,.4,18.6c.1.8,1.1.8,1.1,0" transform="translate(0 -0.02)" style="fill:#ffd417"/></g><path id="Fill-85" d="M166.9,21.7a56.43,56.43,0,0,0,4-6.7.69.69,0,0,0-1.2-.7,41.43,41.43,0,0,0-3.7,6.9c-.2.6.6,1.1.9.5" transform="translate(0 -0.02)" style="fill:#ffd417"/><path id="Fill-87" d="M173.6,26a90.57,90.57,0,0,0,8.2-4.2c2.7-1.5,5.7-2.7,8-4.7a.6.6,0,0,0-.6-1c-2.7.9-5.2,2.6-7.7,4a87,87,0,0,0-8.3,5c-.4.3-.2,1.1.4.9" transform="translate(0 -0.02)" style="fill:#ffd417"/><path id="Fill-89" d="M175.4,34.7c2.4.8,6.5.2,8.3-1.4.6-.6,0-1.4-.8-1.3-1.3.2-2.4.8-3.7,1.1s-2.5.3-3.8.5c-.6.1-.5.9,0,1.1" transform="translate(0 -0.02)" style="fill:#ffd417"/><path id="Fill-91" d="M177.5,45.2c8.1,1.8,16.4,3.9,24.7,4.8a.76.76,0,0,0,.2-1.5c-7.9-2.1-16.4-3.2-24.6-4.5-.8-.1-1.2,1-.3,1.2" transform="translate(0 -0.02)" style="fill:#ffd417"/><path id="Fill-93" d="M60.2,188.2c.3-1.8.2-3.5,1.3-5.1,2.1-3.2,5-2.4,7.8-1s5.6,2.3,8.7.9c4.9-2.1,7.2-9.3,2.5-12.7-1.5-1.1-3,.7-2.8,2.1.3,1.9,1.3,4.1-.4,5.8-2.3,2.2-4.9.4-7.2-.6a9.55,9.55,0,0,0-7.6-.3c-4.3,1.7-7.5,7.5-4,11.4a1,1,0,0,0,1.7-.5" transform="translate(0 -0.02)" style="fill:#7e2e84"/><path id="Fill-95" d="M103.9,243.7a128.3,128.3,0,0,0,18.6,0c2.2-.2,2-2.6-.2-2.7a122.63,122.63,0,0,0-18.2.9c-1.2.1-1.6,1.7-.2,1.8" transform="translate(0 -0.02)" style="fill:#7e2e84"/><path id="Fill-97" d="M209.2,87.4c-.8,1.6,1.8,42.5,1.8,42.5l20-1.7L228.7,139l9.8-11.1,19.6-2.3L256.8,86Z" transform="translate(0 -0.02)" style="fill:#aecaf5"/><path id="Fill-99" d="M220,105.4l4.2,14.6,5.9-1.1-.6-2.9,1.7-1,3.2,3.1,10-1.9,1.3-3.8-2.9-.6,3.7-1.2-.8-4.1-3.2.3,4.4-1.2-1-5.1-10.2,2s.7-7.1-2.4-9.4l-2.3.4a11.41,11.41,0,0,1,.7,3.6,76.84,76.84,0,0,1-2.1,7.7l-3.1,1.5-.7-2.1Z" transform="translate(0 -0.02)" style="fill:#fff"/><polygon id="Fill-101" points="14 77.97 17.4 118.67 92.2 118.67 96.4 132.97 100.7 117.28 115 116.47 108.4 79.97 14 77.97" style="fill:#aecaf5"/><path id="Fill-103" d="M23.6,92.8A633.06,633.06,0,0,1,100.3,94c.9.1.9-1.2,0-1.3-25.5-1.7-51.1-2.4-76.7-1-.8.1-.8,1.2,0,1.1" transform="translate(0 -0.02)" style="fill:#fff"/><path id="Fill-105" d="M25.6,101.8a633.06,633.06,0,0,1,76.7,1.2c.9.1.9-1.2,0-1.3-25.5-1.7-51.1-2.4-76.7-1-.8.1-.8,1.2,0,1.1" transform="translate(0 -0.02)" style="fill:#fff"/><path id="Fill-107" d="M25.6,108.2c17.3.6,34.4-.6,51.7.8.9.1.9-1.3,0-1.3-17.3-1.1-34.4-.4-51.7-.6-.8-.1-.8,1.1,0,1.1" transform="translate(0 -0.02)" style="fill:#fff"/></g></g></g></svg>